<svg width="3453" height="1769" xmlns="http://www.w3.org/2000/svg" xmlns:xlink="http://www.w3.org/1999/xlink" overflow="hidden"><defs><clipPath id="clip0"><rect x="1242" y="218" width="3453" height="1769"/></clipPath><clipPath id="clip1"><rect x="1243" y="219" width="3450" height="1766"/></clipPath><clipPath id="clip2"><rect x="1243" y="219" width="3450" height="1766"/></clipPath><clipPath id="clip3"><rect x="1243" y="219" width="3450" height="1766"/></clipPath><clipPath id="clip4"><rect x="1471" y="389" width="2888" height="1479"/></clipPath><clipPath id="clip5"><rect x="1471" y="389" width="2888" height="1479"/></clipPath><clipPath id="clip6"><rect x="1243" y="219" width="3450" height="1766"/></clipPath><clipPath id="clip7"><rect x="1243" y="219" width="3450" height="1766"/></clipPath><clipPath id="clip8"><rect x="1243" y="219" width="3450" height="1766"/></clipPath><clipPath id="clip9"><rect x="1243" y="219" width="3450" height="1766"/></clipPath><clipPath id="clip10"><rect x="1243" y="219" width="3450" height="1766"/></clipPath><clipPath id="clip11"><rect x="1243" y="219" width="3450" height="1766"/></clipPath><clipPath id="clip12"><rect x="1243" y="219" width="3450" height="1766"/></clipPath><clipPath id="clip13"><rect x="1243" y="219" width="3450" height="1766"/></clipPath><clipPath id="clip14"><rect x="1243" y="219" width="3450" height="1766"/></clipPath><clipPath id="clip15"><rect x="1243" y="219" width="3450" height="1766"/></clipPath><clipPath id="clip16"><rect x="1243" y="219" width="3450" height="1766"/></clipPath><clipPath id="clip17"><rect x="1243" y="219" width="3450" height="1766"/></clipPath><clipPath id="clip18"><rect x="1243" y="219" width="3450" height="1766"/></clipPath><clipPath id="clip19"><rect x="1243" y="219" width="3450" height="1766"/></clipPath><clipPath id="clip20"><rect x="1243" y="219" width="3450" height="1766"/></clipPath><clipPath id="clip21"><rect x="1243" y="219" width="3450" height="1766"/></clipPath><clipPath id="clip22"><rect x="1243" y="219" width="3450" height="1766"/></clipPath><clipPath id="clip23"><rect x="1243" y="219" width="3450" height="1766"/></clipPath><clipPath id="clip24"><rect x="1243" y="219" width="3450" height="1766"/></clipPath><clipPath id="clip25"><rect x="1243" y="219" width="3450" height="1766"/></clipPath><clipPath id="clip26"><rect x="1243" y="219" width="3450" height="1766"/></clipPath><clipPath id="clip27"><rect x="1243" y="219" width="3450" height="1766"/></clipPath><clipPath id="clip28"><rect x="1243" y="219" width="3450" height="1766"/></clipPath><clipPath id="clip29"><rect x="1243" y="219" width="3450" height="1766"/></clipPath><clipPath id="clip30"><rect x="1243" y="219" width="3450" height="1766"/></clipPath><clipPath id="clip31"><rect x="1243" y="219" width="3450" height="1766"/></clipPath><clipPath id="clip32"><rect x="1243" y="219" width="3450" height="1766"/></clipPath><clipPath id="clip33"><rect x="1243" y="219" width="3450" height="1766"/></clipPath></defs><g clip-path="url(#clip0)" transform="translate(-1242 -218)"><rect x="1243" y="219" width="3450" height="1766" fill="#FFFFFF"/><g clip-path="url(#clip1)"><path d="M0 0 0.000360892 1476" stroke="#BFBFBF" stroke-width="3.4375" stroke-linejoin="round" stroke-miterlimit="10" fill="none" fill-rule="evenodd" transform="matrix(1 0 0 -1 1471.5 1865.5)"/></g><g clip-path="url(#clip2)"><path d="M1471.5 1717.5 4355.5 1717.5" stroke="#BFBFBF" stroke-width="3.4375" stroke-linejoin="round" stroke-miterlimit="10" fill="none" fill-rule="evenodd"/></g><g clip-path="url(#clip3)"><path d="M1471.5 1717.5 1471.5 1727.56M1631.55 1717.5 1631.55 1727.56M1791.56 1717.5 1791.56 1727.56M1952.56 1717.5 1952.56 1727.56M2112.57 1717.5 2112.57 1727.56M2272.57 1717.5 2272.57 1727.56M2432.58 1717.5 2432.58 1727.56M2593.59 1717.5 2593.59 1727.56M2753.59 1717.5 2753.59 1727.56M2913.6 1717.5 2913.6 1727.56M3073.6 1717.5 3073.6 1727.56M3233.61 1717.5 3233.61 1727.56M3394.61 1717.5 3394.61 1727.56M3554.62 1717.5 3554.62 1727.56M3714.62 1717.5 3714.62 1727.56M3874.63 1717.5 3874.63 1727.56M4035.63 1717.5 4035.63 1727.56M4195.64 1717.5 4195.64 1727.56M4355.5 1717.5 4355.5 1727.56M1471.5 1717.5 1471.5 1730.5M1791.56 1717.5 1791.56 1730.5M2112.57 1717.5 2112.57 1730.5M2432.58 1717.5 2432.58 1730.5M2753.59 1717.5 2753.59 1730.5M3073.6 1717.5 3073.6 1730.5M3394.61 1717.5 3394.61 1730.5M3714.62 1717.5 3714.62 1730.5M4035.63 1717.5 4035.63 1730.5M4355.5 1717.5 4355.5 1730.5" stroke="#BFBFBF" stroke-width="3.4375" stroke-linejoin="round" stroke-miterlimit="10" fill="none"/></g><g clip-path="url(#clip4)"><path d="M1471.5 1573.15C1482.18 1573.1 1492.86 1573.04 1503.54 1573 1514.23 1572.97 1524.91 1563.57 1535.59 1572.93 1546.27 1582.29 1556.95 1639.54 1567.63 1629.17 1578.31 1618.8 1589 1567.31 1599.68 1510.71 1610.36 1454.11 1621.04 1346.86 1631.72 1289.58 1642.4 1232.3 1653.09 1188.08 1663.77 1167.06 1671.07 1152.68 1688.51 1175.12 1695.81 1163.44 1706.49 1146.37 1717.17 1047.62 1727.86 1064.61 1738.54 1081.6 1749.22 1248.38 1759.9 1265.37 1770.58 1282.36 1781.26 1199.48 1791.94 1166.54 1802.63 1133.6 1813.31 1060.14 1823.99 1067.71 1834.67 1075.29 1845.35 1143.28 1856.03 1212.01 1866.71 1280.74 1877.4 1411.35 1888.08 1480.08 1898.76 1548.81 1909.44 1611.21 1920.12 1624.37 1930.8 1637.54 1941.49 1580.84 1952.17 1559.05 1962.85 1537.27 1973.53 1469.91 1984.21 1493.66 1991.66 1510.23 2008.81 1806.5 2016.26 1701.58 2026.94 1551.13 2037.62 770.807 2048.3 590.985 2049.64 568.5 2079.01 612.367 2080.34 622.649 2091.03 704.871 2101.71 952.756 2112.39 1084.32 2123.07 1215.88 2133.75 1324.61 2144.43 1412.03 2155.11 1499.44 2165.8 1560.67 2176.48 1608.8 2187.03 1656.37 2197.97 1690.09 2208.52 1700.84 2219.2 1711.71 2229.89 1683.48 2240.57 1674.05 2251.25 1664.61 2261.93 1649.8 2272.61 1644.23 2274.89 1643.04 2302.37 1656.57 2304.66 1640.61 2315.34 1565.95 2326.02 1245.1 2336.7 1196.29 2347.38 1147.47 2358.06 1322.51 2368.74 1347.74 2371.43 1354.08 2398.11 1363.46 2400.79 1347.67 2411.47 1284.77 2422.15 1028.16 2432.83 970.359 2436.85 948.614 2460.86 994.021 2464.88 1000.84 2475.56 1018.97 2486.24 1048.46 2496.92 1079.15 2506.73 1107.33 2519.16 1130.58 2528.97 1184.99 2539.65 1244.27 2550.33 1358.49 2561.01 1434.83 2571.69 1511.18 2582.37 1605.43 2593.06 1643.05 2598.04 1660.61 2620.11 1660.29 2625.1 1660.54 2629.28 1660.75 2652.97 1663.32 2657.14 1646.3 2667.83 1602.77 2678.51 1451.74 2689.19 1399.41 2692.69 1382.24 2717.73 1369.33 2721.23 1332.32 2731.92 1219.47 2742.6 824.035 2753.28 722.364 2754.95 706.429 2783.65 716.302 2785.32 722.29 2796 760.498 2806.69 842.425 2817.37 951.612 2828.05 1060.8 2838.73 1268.23 2849.41 1377.41 2860.09 1486.6 2870.77 1579.79 2881.46 1606.73 2892.14 1633.67 2902.82 1571.8 2913.5 1539.05 2924.18 1506.31 2934.86 1444.87 2945.54 1410.26 2956.23 1375.64 2966.91 1346.28 2977.59 1331.36 2984.9 1321.14 3002.32 1335.94 3009.63 1320.73 3020.31 1298.51 3031 1237.46 3041.68 1198.06 3052.36 1158.66 3063.04 1067.45 3073.72 1084.32 3084.4 1101.18 3095.09 1214.1 3105.77 1299.25 3116.45 1384.4 3127.13 1533.06 3137.81 1595.22 3144.87 1636.31 3162.79 1660.58 3169.86 1672.2 3180.54 1689.78 3191.22 1708.88 3201.9 1700.69 3212.58 1692.5 3223.26 1626.02 3233.94 1623.05 3244.63 1620.07 3255.31 1672.88 3265.99 1682.83 3270.12 1686.68 3293.9 1698.24 3298.03 1682.76 3308.71 1642.78 3319.4 1522.9 3330.08 1442.95 3340.76 1363.01 3351.44 1228.37 3362.12 1203.08 3371.83 1180.1 3384.46 1245.33 3394.17 1291.2 3404.85 1341.69 3415.53 1463.66 3426.21 1505.99 3432.4 1530.53 3452.06 1540.09 3458.26 1545.18 3468.94 1553.96 3479.62 1562.34 3490.3 1558.69 3496.64 1556.52 3516.01 1546.29 3522.34 1523.26 3533.03 1484.43 3543.71 1377.58 3554.39 1325.75 3565.07 1273.91 3575.75 1239.88 3586.43 1212.23 3597.11 1184.58 3607.8 1146.83 3618.48 1159.83 3629.16 1172.82 3639.84 1247.6 3650.52 1290.17 3661.2 1332.75 3671.89 1374.72 3682.57 1415.28 3693.25 1455.83 3703.93 1498.61 3714.61 1533.52 3725.29 1568.43 3735.97 1600.17 3746.66 1624.74 3757.34 1649.32 3768.02 1671.03 3778.7 1680.99 3789.38 1690.94 3800.06 1692.13 3810.74 1684.45 3815.59 1680.97 3837.94 1664.02 3842.79 1634.93 3853.47 1570.84 3864.15 1371.78 3874.83 1299.91 3882.29 1249.78 3899.43 1221.88 3906.88 1203.74 3917.56 1177.74 3928.24 1157.29 3938.92 1143.88 3949.6 1130.47 3960.29 1117.93 3970.97 1123.29 3977 1126.32 3996.98 1145.79 4003.01 1176.06 4013.69 1229.7 4024.37 1360.53 4035.06 1445.09 4045.74 1529.65 4056.42 1641.12 4067.1 1683.42 4071.46 1700.68 4094.79 1697.5 4099.14 1698.92 4109.83 1702.41 4120.51 1704.2 4131.19 1704.38 4141.87 1704.57 4152.55 1703.02 4163.23 1700.03 4171.1 1697.83 4187.41 1701.97 4195.28 1686.45 4201.78 1673.62 4220.82 1631.89 4227.32 1573.59 4238 1477.79 4248.69 1198.03 4259.37 1111.63 4263.35 1079.41 4287.43 1054.96 4291.41 1055.17 4295.36 1055.37 4319.5 1081.27 4323.46 1114.95 4334.14 1205.98 4344.82 1439.21 4355.5 1601.35" stroke="#5B9BD5" stroke-width="6.875" stroke-linecap="round" stroke-linejoin="round" stroke-miterlimit="10" fill="none"/></g><g clip-path="url(#clip5)"><path d="M1471.5 1495.83C1482.18 1458.73 1492.86 1408.01 1503.54 1384.54 1512.58 1364.68 1526.56 1349.11 1535.59 1354.97 1546.27 1361.91 1556.95 1391.75 1567.63 1426.14 1578.31 1460.53 1589 1523 1599.68 1561.31 1610.36 1599.61 1621.04 1636.67 1631.72 1655.97 1641.02 1672.78 1654.47 1673.53 1663.77 1677.11 1674.45 1681.22 1685.13 1686.34 1695.81 1680.66 1706.49 1674.98 1717.17 1660.93 1727.86 1643.04 1738.54 1625.16 1749.22 1601.36 1759.9 1573.35 1770.58 1545.34 1781.26 1493.19 1791.94 1474.99 1800.51 1460.39 1815.42 1460.85 1823.99 1464.13 1834.67 1468.22 1845.35 1483.42 1856.03 1499.53 1866.71 1515.64 1877.4 1541.21 1888.08 1560.79 1898.76 1580.37 1909.44 1600.22 1920.12 1617.03 1930.8 1633.84 1941.49 1649.83 1952.17 1661.66 1962.85 1673.5 1973.53 1683.66 1984.21 1688.05 1994.57 1692.3 2005.9 1700.21 2016.26 1687.97 2026.38 1676.01 2038.18 1652.13 2048.3 1612.3 2058.98 1570.26 2069.66 1492.96 2080.34 1435.75 2091.03 1378.54 2101.71 1309.12 2112.39 1269.03 2122.75 1230.14 2134.07 1209.53 2144.43 1195.2 2149.64 1188 2171.27 1163.54 2176.48 1180.42 2187.16 1215.02 2197.84 1333.35 2208.52 1402.79 2219.2 1472.23 2229.89 1556.61 2240.57 1597.08 2247.99 1625.18 2265.19 1636.49 2272.61 1645.55 2283.29 1658.6 2293.97 1669.71 2304.66 1675.34 2313.57 1680.03 2327.78 1692.81 2336.7 1679.33 2347.38 1663.18 2358.06 1610.09 2368.74 1578.45 2379.43 1546.81 2390.11 1504.59 2400.79 1489.48 2408.67 1478.32 2424.95 1501.77 2432.83 1487.78 2443.51 1468.82 2454.2 1393.71 2464.88 1375.74 2473.14 1361.84 2488.66 1377.87 2496.92 1379.95 2507.6 1382.65 2518.29 1380.3 2528.97 1391.93 2537.58 1401.3 2552.4 1417.81 2561.01 1449.72 2571.69 1489.28 2582.37 1600.07 2593.06 1629.3 2598.61 1644.49 2619.55 1629.12 2625.1 1625.08 2634.65 1618.14 2647.6 1607.48 2657.14 1582.66 2667.83 1554.9 2678.51 1489.83 2689.19 1458.51 2698.94 1429.93 2711.49 1429.07 2721.23 1394.73 2731.92 1357.11 2742.6 1276.57 2753.28 1232.74 2763.96 1188.92 2774.64 1114.5 2785.32 1131.79 2796 1149.09 2806.69 1278.91 2817.37 1336.5 2828.05 1394.09 2838.73 1441.39 2849.41 1477.36 2860.09 1513.32 2870.77 1532.05 2881.46 1552.29 2892.14 1572.53 2902.82 1588.51 2913.5 1598.77 2924.18 1609.03 2934.86 1619.05 2945.54 1613.85 2956.23 1608.65 2966.91 1591.25 2977.59 1567.59 2988.27 1543.93 2998.95 1503.44 3009.63 1471.89 3020.31 1440.33 3031 1400.52 3041.68 1378.25 3052.36 1355.98 3063.04 1338.8 3073.72 1338.27 3084.4 1337.74 3095.09 1353.24 3105.77 1375.08 3116.45 1396.91 3127.13 1434.3 3137.81 1469.3 3148.49 1504.3 3159.17 1554.53 3169.86 1585.1 3180.54 1615.67 3191.22 1639.32 3201.9 1652.72 3212.58 1666.12 3223.26 1666.26 3233.94 1665.51 3244.63 1664.76 3255.31 1657.74 3265.99 1648.21 3275.37 1639.86 3288.66 1632.17 3298.03 1608.38 3308.71 1581.28 3319.4 1541.93 3330.08 1485.63 3340.76 1429.33 3351.44 1310.04 3362.12 1270.58 3367.18 1251.88 3389.11 1245.43 3394.17 1248.85 3399.61 1252.53 3420.77 1278.08 3426.21 1313.96 3436.89 1384.42 3447.57 1608.47 3458.26 1671.64 3461.47 1690.64 3487.09 1692.68 3490.3 1693 3500.98 1694.06 3511.66 1688.15 3522.34 1678 3533.03 1667.85 3543.71 1650.47 3554.39 1632.1 3565.07 1613.74 3575.75 1593.96 3586.43 1567.81 3597.11 1541.66 3607.8 1498.86 3618.48 1475.21 3629.16 1451.56 3639.84 1438.83 3650.52 1425.92 3661.2 1413.01 3671.89 1399.34 3682.57 1397.76 3692.87 1396.24 3704.31 1401.02 3714.61 1416.46 3725.29 1432.47 3735.97 1464.71 3746.66 1493.84 3757.34 1522.96 3768.02 1562.24 3778.7 1591.24 3789.38 1620.23 3800.06 1650.57 3810.74 1667.8 3821.43 1685.03 3832.11 1690.56 3842.79 1694.62 3853.47 1698.69 3864.15 1700.5 3874.83 1692.19 3885.52 1683.87 3896.2 1665.41 3906.88 1644.74 3917.56 1624.07 3928.24 1595.34 3938.92 1568.18 3949.6 1541.02 3960.29 1508.96 3970.97 1481.79 3981.65 1454.62 3992.33 1426.2 4003.01 1405.15 4013.69 1384.1 4024.37 1369.82 4035.06 1355.49 4045.74 1341.17 4056.42 1323.11 4067.1 1319.21 4075.22 1316.24 4091.02 1316.81 4099.14 1332.07 4109.83 1352.13 4120.51 1398.81 4131.19 1439.59 4141.87 1480.37 4152.55 1538.92 4163.23 1576.75 4173.92 1614.59 4184.6 1653.28 4195.28 1666.62 4205.76 1679.71 4216.84 1667.7 4227.32 1656.79 4238 1645.67 4248.69 1620.22 4259.37 1599.88 4270.05 1579.55 4280.73 1551.64 4291.41 1534.78 4302.09 1517.91 4312.77 1511.74 4323.46 1498.71 4334.14 1485.68 4344.82 1470.63 4355.5 1456.59" stroke="#ED7D31" stroke-width="6.875" stroke-linecap="round" stroke-linejoin="round" stroke-miterlimit="10" fill="none"/></g><g clip-path="url(#clip6)"><text fill="#595959" font-family="Calibri,Calibri_MSFontService,sans-serif" font-weight="400" font-size="41" transform="matrix(1 0 0 1 1378.71 1877)">-20</text></g><g clip-path="url(#clip7)"><text fill="#595959" font-family="Calibri,Calibri_MSFontService,sans-serif" font-weight="400" font-size="41" transform="matrix(1 0 0 1 1412.24 1729)">0</text></g><g clip-path="url(#clip8)"><text fill="#595959" font-family="Calibri,Calibri_MSFontService,sans-serif" font-weight="400" font-size="41" transform="matrix(1 0 0 1 1391.34 1582)">20</text></g><g clip-path="url(#clip9)"><text fill="#595959" font-family="Calibri,Calibri_MSFontService,sans-serif" font-weight="400" font-size="41" transform="matrix(1 0 0 1 1391.34 1434)">40</text></g><g clip-path="url(#clip10)"><text fill="#595959" font-family="Calibri,Calibri_MSFontService,sans-serif" font-weight="400" font-size="41" transform="matrix(1 0 0 1 1391.34 1286)">60</text></g><g clip-path="url(#clip11)"><text fill="#595959" font-family="Calibri,Calibri_MSFontService,sans-serif" font-weight="400" font-size="41" transform="matrix(1 0 0 1 1391.34 1139)">80</text></g><g clip-path="url(#clip12)"><text fill="#595959" font-family="Calibri,Calibri_MSFontService,sans-serif" font-weight="400" font-size="41" transform="matrix(1 0 0 1 1370.44 991)">100</text></g><g clip-path="url(#clip13)"><text fill="#595959" font-family="Calibri,Calibri_MSFontService,sans-serif" font-weight="400" font-size="41" transform="matrix(1 0 0 1 1370.44 844)">120</text></g><g clip-path="url(#clip14)"><text fill="#595959" font-family="Calibri,Calibri_MSFontService,sans-serif" font-weight="400" font-size="41" transform="matrix(1 0 0 1 1370.44 696)">140</text></g><g clip-path="url(#clip15)"><text fill="#595959" font-family="Calibri,Calibri_MSFontService,sans-serif" font-weight="400" font-size="41" transform="matrix(1 0 0 1 1370.44 548)">160</text></g><g clip-path="url(#clip16)"><text fill="#595959" font-family="Calibri,Calibri_MSFontService,sans-serif" font-weight="400" font-size="41" transform="matrix(1 0 0 1 1370.44 401)">180</text></g><g clip-path="url(#clip17)"><text fill="#595959" font-family="Calibri,Calibri_MSFontService,sans-serif" font-weight="400" font-size="41" transform="matrix(1 0 0 1 1429.61 1783)">1845</text></g><g clip-path="url(#clip18)"><text fill="#595959" font-family="Calibri,Calibri_MSFontService,sans-serif" font-weight="400" font-size="41" transform="matrix(1 0 0 1 1750.09 1783)">1855</text></g><g clip-path="url(#clip19)"><text fill="#595959" font-family="Calibri,Calibri_MSFontService,sans-serif" font-weight="400" font-size="41" transform="matrix(1 0 0 1 2070.57 1783)">1865</text></g><g clip-path="url(#clip20)"><text fill="#595959" font-family="Calibri,Calibri_MSFontService,sans-serif" font-weight="400" font-size="41" transform="matrix(1 0 0 1 2391.05 1783)">1875</text></g><g clip-path="url(#clip21)"><text fill="#595959" font-family="Calibri,Calibri_MSFontService,sans-serif" font-weight="400" font-size="41" transform="matrix(1 0 0 1 2711.54 1783)">1885</text></g><g clip-path="url(#clip22)"><text fill="#595959" font-family="Calibri,Calibri_MSFontService,sans-serif" font-weight="400" font-size="41" transform="matrix(1 0 0 1 3032.02 1783)">1895</text></g><g clip-path="url(#clip23)"><text fill="#595959" font-family="Calibri,Calibri_MSFontService,sans-serif" font-weight="400" font-size="41" transform="matrix(1 0 0 1 3352.5 1783)">1905</text></g><g clip-path="url(#clip24)"><text fill="#595959" font-family="Calibri,Calibri_MSFontService,sans-serif" font-weight="400" font-size="41" transform="matrix(1 0 0 1 3672.98 1783)">1915</text></g><g clip-path="url(#clip25)"><text fill="#595959" font-family="Calibri,Calibri_MSFontService,sans-serif" font-weight="400" font-size="41" transform="matrix(1 0 0 1 3993.47 1783)">1925</text></g><g clip-path="url(#clip26)"><text fill="#595959" font-family="Calibri,Calibri_MSFontService,sans-serif" font-weight="400" font-size="41" transform="matrix(1 0 0 1 4313.95 1783)">1935</text></g><g clip-path="url(#clip27)"><text fill="#595959" font-family="Calibri,Calibri_MSFontService,sans-serif" font-weight="400" font-size="46" transform="matrix(6.12323e-17 -1 1 6.12323e-17 1344.75 1278)">Number (1000s)</text></g><g clip-path="url(#clip28)"><text fill="#595959" font-family="Calibri,Calibri_MSFontService,sans-serif" font-weight="400" font-size="46" transform="matrix(1 0 0 1 2872.04 1916)">Year</text></g><g clip-path="url(#clip29)"><text fill="#595959" font-family="Calibri,Calibri_MSFontService,sans-serif" font-weight="400" font-size="64" transform="matrix(1 0 0 1 2191.26 314)">Hare and Lynx Data from Hudson's Bay Company  of Canada</text></g><g clip-path="url(#clip30)"><path d="M4469.5 1123.5 4557.5 1123.5" stroke="#5B9BD5" stroke-width="6.875" stroke-linecap="round" stroke-linejoin="round" stroke-miterlimit="10" fill="none" fill-rule="evenodd"/></g><g clip-path="url(#clip31)"><text fill="#595959" font-family="Calibri,Calibri_MSFontService,sans-serif" font-weight="400" font-size="41" transform="matrix(1 0 0 1 4566.56 1135)">Hare</text></g><g clip-path="url(#clip32)"><path d="M4469.5 1200.5 4557.5 1200.5" stroke="#ED7D31" stroke-width="6.875" stroke-linecap="round" stroke-linejoin="round" stroke-miterlimit="10" fill="none" fill-rule="evenodd"/></g><g clip-path="url(#clip33)"><text fill="#595959" font-family="Calibri,Calibri_MSFontService,sans-serif" font-weight="400" font-size="41" transform="matrix(1 0 0 1 4566.56 1212)">Lynx</text></g><rect x="1243.5" y="219.5" width="3450" height="1766" stroke="#D9D9D9" stroke-width="3.4375" stroke-linejoin="round" stroke-miterlimit="10" fill="none"/></g></svg>