<?xml version="1.0" encoding="utf-8"?>
<!-- Generator: Adobe Illustrator 11 Build 196, SVG Export Plug-In . SVG Version: 6.0.0 Build 78)  -->
<!DOCTYPE svg PUBLIC "-//W3C//DTD SVG 1.0//EN"    "http://www.w3.org/TR/2001/REC-SVG-20010904/DTD/svg10.dtd" [
	<!ENTITY ns_flows "http://ns.adobe.com/Flows/1.0/">
	<!ENTITY ns_extend "http://ns.adobe.com/Extensibility/1.0/">
	<!ENTITY ns_ai "http://ns.adobe.com/AdobeIllustrator/10.0/">
	<!ENTITY ns_graphs "http://ns.adobe.com/Graphs/1.0/">
	<!ENTITY ns_vars "http://ns.adobe.com/Variables/1.0/">
	<!ENTITY ns_imrep "http://ns.adobe.com/ImageReplacement/1.0/">
	<!ENTITY ns_sfw "http://ns.adobe.com/SaveForWeb/1.0/">
	<!ENTITY ns_custom "http://ns.adobe.com/GenericCustomNamespace/1.0/">
	<!ENTITY ns_adobe_xpath "http://ns.adobe.com/XPath/1.0/">
	<!ENTITY ns_svg "http://www.w3.org/2000/svg">
	<!ENTITY ns_xlink "http://www.w3.org/1999/xlink">
]>
<svg 
	 xmlns:x="&ns_extend;" xmlns:i="&ns_ai;" xmlns:graph="&ns_graphs;" i:viewOrigin="272.334 732.4888" i:rulerOrigin="1 0" i:pageBounds="-1 864 863 0"
	 xmlns="&ns_svg;" xmlns:xlink="&ns_xlink;" xmlns:a="http://ns.adobe.com/AdobeSVGViewerExtensions/3.0/"
	 width="332.098" height="134.736" viewBox="0 0 332.098 134.736" overflow="visible" enable-background="new 0 0 332.098 134.736"
	 xml:space="preserve">
	<metadata>
		<variableSets  xmlns="&ns_vars;">
			<variableSet  varSetName="binding1" locked="none">
				<variables></variables>
				<v:sampleDataSets  xmlns="&ns_custom;" xmlns:v="&ns_vars;"></v:sampleDataSets>
			</variableSet>
		</variableSets>
		<sfw  xmlns="&ns_sfw;">
			<slices></slices>
			<sliceSourceBounds  y="-7760" x="-7760" width="16383" height="16383" bottomLeftOrigin="true"></sliceSourceBounds>
		</sfw>
<?xpacket begin='﻿' id='W5M0MpCehiHzreSzNTczkc9d'?><x:xmpmeta xmlns:x='adobe:ns:meta/' x:xmptk='XMP toolkit 3.0-29, framework 1.6'>
<rdf:RDF xmlns:rdf='http://www.w3.org/1999/02/22-rdf-syntax-ns#' xmlns:iX='http://ns.adobe.com/iX/1.0/'>

 <rdf:Description rdf:about='uuid:07b2dd0d-ee02-11db-b83e-000a95c54204'
  xmlns:pdf='http://ns.adobe.com/pdf/1.3/'>
  <pdf:Producer>Adobe PDF library 6.66</pdf:Producer>
 </rdf:Description>

 <rdf:Description rdf:about='uuid:07b2dd0d-ee02-11db-b83e-000a95c54204'
  xmlns:tiff='http://ns.adobe.com/tiff/1.0/'>
 </rdf:Description>

 <rdf:Description rdf:about='uuid:07b2dd0d-ee02-11db-b83e-000a95c54204'
  xmlns:xap='http://ns.adobe.com/xap/1.0/'
  xmlns:xapGImg='http://ns.adobe.com/xap/1.0/g/img/'>
  <xap:CreateDate>2007-04-18T10:20:51-04:00</xap:CreateDate>
  <xap:ModifyDate>2007-04-18T23:19:00Z</xap:ModifyDate>
  <xap:CreatorTool>Illustrator</xap:CreatorTool>
  <xap:MetadataDate>2007-04-18T16:02:01-04:00</xap:MetadataDate>
  <xap:Thumbnails>
   <rdf:Alt>
    <rdf:li rdf:parseType='Resource'>
     <xapGImg:format>JPEG</xapGImg:format>
     <xapGImg:width>256</xapGImg:width>
     <xapGImg:height>104</xapGImg:height>
     <xapGImg:image>/9j/4AAQSkZJRgABAgEASABIAAD/7QAsUGhvdG9zaG9wIDMuMAA4QklNA+0AAAAAABAASAAAAAEA&#xA;AQBIAAAAAQAB/+4ADkFkb2JlAGTAAAAAAf/bAIQABgQEBAUEBgUFBgkGBQYJCwgGBggLDAoKCwoK&#xA;DBAMDAwMDAwQDA4PEA8ODBMTFBQTExwbGxscHx8fHx8fHx8fHwEHBwcNDA0YEBAYGhURFRofHx8f&#xA;Hx8fHx8fHx8fHx8fHx8fHx8fHx8fHx8fHx8fHx8fHx8fHx8fHx8fHx8fHx8f/8AAEQgAaAEAAwER&#xA;AAIRAQMRAf/EAaIAAAAHAQEBAQEAAAAAAAAAAAQFAwIGAQAHCAkKCwEAAgIDAQEBAQEAAAAAAAAA&#xA;AQACAwQFBgcICQoLEAACAQMDAgQCBgcDBAIGAnMBAgMRBAAFIRIxQVEGE2EicYEUMpGhBxWxQiPB&#xA;UtHhMxZi8CRygvElQzRTkqKyY3PCNUQnk6OzNhdUZHTD0uIIJoMJChgZhJRFRqS0VtNVKBry4/PE&#xA;1OT0ZXWFlaW1xdXl9WZ2hpamtsbW5vY3R1dnd4eXp7fH1+f3OEhYaHiImKi4yNjo+Ck5SVlpeYmZ&#xA;qbnJ2en5KjpKWmp6ipqqusra6voRAAICAQIDBQUEBQYECAMDbQEAAhEDBCESMUEFURNhIgZxgZEy&#xA;obHwFMHR4SNCFVJicvEzJDRDghaSUyWiY7LCB3PSNeJEgxdUkwgJChgZJjZFGidkdFU38qOzwygp&#xA;0+PzhJSktMTU5PRldYWVpbXF1eX1RlZmdoaWprbG1ub2R1dnd4eXp7fH1+f3OEhYaHiImKi4yNjo&#xA;+DlJWWl5iZmpucnZ6fkqOkpaanqKmqq6ytrq+v/aAAwDAQACEQMRAD8A9U4q7FXYq7FXYq7FUgvr&#xA;TX5PMVreQSRLZ26MgtmZuUiMV9RiQpUHpxFe3zxVP8VdirsVdirsVdirsVdirsVdirsVdirsVdir&#xA;sVdirsVdirsVdirsVdirsVdirsVdirsVdirsVdirsVUmB+sxmm3B99/Ffo/z+eKquKuxV2KuxV2K&#xA;pdf6/plnHMTMs9xAyxmzhZGnMrmNUjCFhRma4jHxEAc1JIBriqvbarpd3cz2treQT3NqaXMEUiO8&#xA;RJIpIqkld1I38MVSnQ/PGg63LFHp7ysJuQjkkiaJSRFHcIPjCt+8gnWVNt1r3BGKpzHf2MsvpR3E&#xA;Ty7/ALtXUtt12BriqVJ5v0mTV7nSoPUnurW5hspfTClRcTRG4KVLD+7gX1HPSmwq3w4qibbzJo13&#xA;dxW1ndR3Xrc1WaB0ljEkaq5iZkY0co3MA9gTiqZ4q7FXYq7FXYq7FXYq7FXYq7FXYq7FXYq7FXYq&#xA;7FXYq7FXYq7FVFh/pcZ2/u5PCvVPev4YqrYq7FVG5vLW1VGuZkhEjiOMuwXk5BPEV6mgJ+WKtG/s&#xA;RaJeG4iFpIEaO4Lr6bCQgIQ9eJ5chTxxVtby0eYQJPG0xVnEQZSxVG4M3GtaBtifHFWI3nkry5da&#xA;nqWtWF4q38cwluYvUQ2sV3C1pcEzIo5KzfUoDIOXT4utDiqZaN5Nt9GvJbmxvbjld3QutQEvpMJg&#xA;lu0CRfCiBQtUaoHL4ACabYqpaJ5E07RZ7QWTubW1czBZjzkaVLVLG3HOi0SG1QxgdT1J5VLKplZ+&#xA;WdHs7831vFItySxLNPO6/H9r4Hdk7+GKpDpmg2WpafHLDq1rqV7JfPqtzeWoUxOt5BJarwQPNxAt&#xA;JOMZLMCVB3FRiqJ0jytpWhw2DRX5bTYLma9WW5dC0t5fkxIwdRGgDeu4AUfGz169VWSWd5Z3trFd&#xA;2U8dzaTqHguIXWSN0bcMjqSrA+IxV31y09ZIPXj9eTnwi5Lzb06B6LWp48hXwriq64uILeCS4ncR&#xA;QRKXlkY0VVUVZmPYAdcVXg13HTFW8VdirsVdirsVdirsVdirsVdirsVdirsVdirsVdiqi3+9Uf8A&#xA;xjfw8U+nFVbFXYqknmezurg6Y9vCZ/QuXMgDtEVE1pPbq4eMGRfjmUFk3VSW7YqwG08g/mlasjjV&#xA;klYRQJIkmraiyM0KWNWVWhYJyks5mJUbiUqduVVUTJ+W3nK1szpuj6olpYLFcwxMt5fxvwmvYp4x&#xA;xBkVHSKORfUQ1+PjTbliqaQ+R9evfKXmjRtdntpbvXQPRu4WlIEi2EFqskgIRqiS2Emzb4qg9V8l&#xA;fmDdsXGsdZ4GMMN/eWcfoRwlSoaNJJVKyMf2z6gozUZRiqSv5J/M83Nnp51K5iZ0d21WPVb6aKB1&#xA;NhVnRxF6zu0F0yRMvpgScSQooVXo2v6dr2o6CLe3uEtdRE0EsnozSwpJHFOsjw+ug9WMSxqULqKi&#xA;vQjbFWCWX5b+fl/RlrJqsdpptlLZPcQ219eOJktWYSIytHESksZAZQ4q27FgCGVX6P8Aln5x0rTL&#xA;TT4tT9RdM0/TbCwMepajbxFrC55Syvbj1EBmgCrQEqKcaccVWTflp5/j0qa107W/qknpC3t4kv8A&#xA;UFiXlBeRvcApxMbc7m3dY0HEejsRyxVME8i+crO4d9Ku7a1gnuLy6uIRc3dGN9JFPLHShX4mWSMS&#xA;AKyV9RasxUKqGmeUvPmiar+lbq7fU7CBXebT11C9uDJD6E4FtFazIYSweSFRIzAt6fI0Ltir0HRb&#xA;Say0exs539Se2t4oZZP5mjQKx+kjFUbirsVdirsVdirsVdirsVdirsVdiqWzeY9BguWtri/hgmWd&#xA;LTjK4jrPIiyLEpagZysiniN9x44qib7UbGxhaa7mWGNVZyWO/GNS7kDqeKgk07YqiAQwBBqDuCOh&#xA;GKobUNV0zTo45NQu4bRJpBFE07rGGkboi8iKk06Yq1qup2mlaZd6neMUtLKF7idgKkJGpZqDuaDY&#xA;Yq+ctb1jWvMc0l7rF1Oskr84bSGeSOK1U14xxemUFVGzP1Y9dqAKpr5KsBq1tcW1zNM+oWDKsria&#xA;UepFICYZiA1By4srU/aU0AFMKGSf4Mj/AJp/+R83/NeKu/wZH/NP/wAj5v8AmvFXf4Mj/mn/AOR8&#xA;3/NeKu/wZH/NP/yPm/5rxV3+DI/5p/8AkfN/zXirv8GR/wA0/wDyPm/5rxV3+DI/5p/+R83/ADXi&#xA;qjd+WLCzt3ubu5e3t46GSaW5lRFqaCrM4HU0xVAw2WhyzxQevdQyXB42/wBZ+uW6yt14xNN6au1N&#xA;6KSab4qu1XT9C0qeCC/u5oZrlZpIk9W4YmO3jMkrnixoqKNycVVG0bS09MSTzJI7RI8Jnl9SNp6C&#xA;MSKHJTkzKu/cjFUd/gyP+af/AJHzf814q7/Bkf8ANP8A8j5v+a8Vd/gyP+af/kfN/wA14q7/AAZH&#xA;/NP/AMj5v+a8VaPkyP8AnnHuJ5gfwfFWWeSNS1O1vZPL+qXEl2DG11pV3OxeUxIypNBI53cxNIhV&#xA;2PJlahqUJISy2+vrSxtJby7kENtApeWQ12A9hUknsBucVW2eoWd4ZxbSiU2spt7gCvwSqAxQ17gM&#xA;MVdZ6jYXpf6pOk/p8CxQ8hSRBIjAjYqysCCNjiqJxVStrq2uoVntpUngevCWNg6GhoaMtR1FMVVc&#xA;VdirGfPflrWtcsLdNG1N9LvbdpysoeRVIntZrcEiMjeN5VlWoO6071xVIJ/IOtXpEUtzHFNCt9a3&#xA;NwUkKTW2pz2108sXx8hJE1p6KB2JA3JP7Sqb6hourXOp6X5lu7eKW40qzv430lFLvNJccPS9Ny/p&#xA;o/GLieXIDkwqftBVFL5VvH0HR9ObUp4J9NtY7eaaCSVDKyRohZvTeKu6V38cVQPm3yLf61osOm2+&#xA;o+m31S8065uJxJK5gv4fRkkRi/L1Yx8S8jv0PjiqD/Oq9eHyjDZrsupX0EDt3CxBrv8A4b6txPsc&#xA;VePfsn5j+OKsk/LGaOLz1BDISI9RtZ7ag6NLHxnjr/qxxzU+eKvWbvUtAtrt7Npmnu4gDNbWkM13&#xA;LGCKgypbpK0de3ICuKrtOvtB1Cdra3uALxF5vZTI9vcqm3xmCZY5Qu4+LjTFUy/RcPtirv0XD7Yq&#xA;79Fw+2Ku/RcPtiqE1U6ZpdjJe3j8IYyq0ALMzuwSONFG7O7sFVRuSaYqlekeVru7uF1jzAqfXQS1&#xA;jpqkPDYoRQbjaScj7cnb7KfDUsqm9/5d06/s5bO8iWa2mHGSNu/cEEUIIO4I3B3GKsHuvLbHVJdM&#xA;8zagI47jTbjRtFvigVZ1vWHqtLKW4/WuMMQ9PioYqzpXkVjVTG3/ACpsIb6fURcE32o3Vtd6ixSP&#xA;iPq0wuRHBwWNgplRf7wt8Nf2iSVWX/ouH2xV36Lh9sVd+i4fbFXfouH2xV36Lh9sVSjzBYx2b6Vq&#xA;af3lnqFuoUbcheN9RYH2AuufzUYqkt75N80w6vf6imom901rlb6DTC0rScku7S5aNPUcxj4bRkjH&#xA;RSduIY8VUYvlrzF+g9Y0QTwcNXTVpo9SCOrwz3sxe2DIX5PwWVq9KBVX3xVF+X9AuLK4vIOH1a2i&#xA;06x0uBoqoha2E7tJCA7SKg+tBRV61U/MqubybdnS9Usjq91K2o2c1okkssz+k0yFRIokkk3WvbFV&#xA;byToF9o1jeLeiCOa8ufrH1e1ZnhiVYIoAqsyxk8vQ9Q/AN2PzxVkWKuxV2KuxV2KuxVSDzVH7rbu&#xA;eQ23p+rfFXmn52SSvZaJHInCMXTydajmIHUbDwV23xV5kAvE/F3H8cVRWgRahL5q0OLTrj6tcy3E&#xA;qG4ABaONrO49Vo61X1OFeBYEBqEgjbFXu+mQ2mmWiWdjarBbISaBqklm+J3ZiWd2+0zMSSepriqn&#xA;qlpZatbrDf2okCMHhkDlJYpKH95DKhV43XsyEHFUu0/X9X07UE0fWR66zA/ovViUT1+K1ME4UKi3&#xA;A3+yArrVlAoyhVPzfS70j8afEMVd9ekr/d/8MPGn6t8VULzW4rK0ku7vjDbwjlJIzCgG/huTWgAG&#xA;5riqT6b+kdS1BNb1W3MQh5fofTmahgV0o00w6G4k3X/itDxG5csqn/16X/ff/DD2xV316Sv93/ww&#xA;8afq3xVSupIru2ktrq1jnt5l4TQS8XRlNahlYEEYqkw0rUrIg6JqMtnEOljdf6baj4eih2SdKbKq&#xA;pMEH8uKqg1rzhAP9I0q1u0U0MlpdFJHH8whnjVF+RnPzxVcfNt+m8+gahEnZv9Glrv8AywTyt09s&#xA;Vb/xvY7Vtb/tX/cffHqf+MGKtf43sf8Alkv+lf8AeC+606f3Hjtirj5yd6i20nULjei/uTByO3/L&#xA;SYKf7KmKpd5i8w6rPpjRnQbuACa3dZ5ZrMKhjuEZW/dTyPUFQRRcVZsJJtqxU6V+Ie+Ku9Sf/fX/&#xA;AAw8K/rxV3qT0/ud99uQ9sVcXmqf3W3Y8hvvT9W+Ku5zbfuvn8Q8TirvUn/31/ww8K/rxVKLrVNa&#xA;j11LW2tPrNs0StOKhfSJJFfU6b/ynfbFU8xV2KuxV2KuxV51+d9sz+XNNuQvwWmpRtM9PsrLBNAt&#xA;T4NLKg+dMVeS/sn5j+OKpr5MUv5z00g0+qpcXbHxCx/V6ffdA/Rir1v9Ie+FDv0h74qhdSFjqVlL&#xA;ZXqetbTU5pUqQVIZWVlIZWVgGVlIKkAg1xVLI9X1/Sh6V1E+sWa7RXkHAXSr/wAXxMY1en88Rqf5&#xA;B1wKrP5xDjjY2F7dyn9kwPbKPdnuvQWn+rU+2KVlva3d1eRahrkqTTW7c7Kxhr9Wt2pTnVgrTS7/&#xA;AN4wFP2VU1JUJ1+kPfCrv0h74q79Ie+Ku/SHvirv0h74q79Ie+Ku/SHvirv0h74q79Ie+Ku/SHvi&#xA;qA1a6+tHT7IfHJc6hZBI9viENwlxKN/CKF2PsMCWfYq7FXYq7FXYqk3mBpyqRwC5Ex48ZIA/BAZF&#xA;5u3DqVQEgEH5YqmNgipaoF9XjVivrlmkoWJFeXxfIHfFURirsVdirsVdiqUebdATzB5bv9ILCN7q&#xA;KkErCojnQh4ZCO/CVVantir50VpV9aK5jNvd20hhvLdyC0MqbOjEeHj0IoRsRiqd+RFAe61phRbp&#xA;Vt7Ko6wRks0q17Su30qqnvhQy79J++Ku/Sfvirv0n74q79J++Ku/Sfvirv0n74q79J++Ku/Sfvir&#xA;v0n74q79J++Ku/Sfvirv0n74q79J++Ku/Sfvirv0n74q79J++Kpl5HibWvMJ1IfFp2i+pFFJsVe+&#xA;lXg/E/8AFEJZW7Vkp1U0Vej4EuxV2KuxV2KuxV2KuxV2KuxV2KuxV2Ksc8weSfJ2vajE+saTbXlw&#xA;0bEyOlHdYyoCu605qvPZWqPDFVv/ACrbyP8A9WiH73/5qxV3/Kt/I/8A1aIfvf8A5qxV3/Kt/I//&#xA;AFaIfvf/AJqxV3/Kt/I//Voh+9/+asVd/wAq38j/APVoh+9/+asVd/yrfyP/ANWiH73/AOasVd/y&#xA;rfyP/wBWiH73/wCasVd/yrfyP/1aIfvf/mrFXf8AKt/I/wD1aIfvf/mrFXf8q38j/wDVoh+9/wDm&#xA;rFXf8q38j/8AVoh+9/8AmrFXf8q38j/9WiH73/5qxV3/ACrfyP8A9WiH73/5qxV3/Kt/I/8A1aIf&#xA;vf8A5qxV3/Kt/I//AFaIfvf/AJqxV3/Kt/I//Voh+9/+asVWyfl35DijaSTSYBGgLOW5kUG5qC3T&#xA;FWQ2dnaWVrFaWcEdtawqEhghVY40UdFVVAAHyxVWxV2KuxV2KuxV2KuxV2KuxV2KuxV2KuxVL7u1&#xA;ml1S1kjleFUgnVnQITVnhIHxhv5T0GKqv1K5/wCW+f8A4GD/AKpYq76lc/8ALfP/AMDB/wBUsVd9&#xA;Suf+W+f/AIGD/qlirvqVz/y3z/8AAwf9UsVd9Suf+W+f/gYP+qWKu+pXP/LfP/wMH/VLFXfUrn/l&#xA;vn/4GD/qlirvqVz/AMt8/wDwMH/VLFXfUrn/AJb5/wDgYP8AqlirvqVz/wAt8/8AwMH/AFSxV31K&#xA;5/5b5/8AgYP+qWKu+pXP/LfP/wADB/1SxV31K5/5b5/+Bg/6pYq76lc/8t8//Awf9UsVd9Suf+W+&#xA;f/gYP+qWKu+pXP8Ay3z/APAwf9UsVQ+oadeS2FzFHeztJJE6otIBUlSAP7sYqmeKuxV2KuxV2Kux&#xA;V2KuxV2KuxV2KuxV2KuxV5/rdx5lH5mWEVuLv6n/AKGYPTjlNp9XZbz9Ies6gw8qrb05nkDw49TV&#xA;V6BirsVdirsVdirsVdirsVdirsVdirsVdirsVdirsVY/+YGo3OneSdcvLRmju47OYW0qcgY5XUok&#xA;hK/EAjMGJHQCuKp1aII7WFA7yBY1USSVLtQAcmrvU98VVsVdirsVdirsVdirsVdirsVdirsVdirs&#xA;VUmP+lRiv7D7V907UxVVxV2KuxV2KuxV2KuxV2KuxV2KuxV2KuxV2KuxV2KuxV2KuxV2KuxV2Kux&#xA;V2KuxV//2Q==</xapGImg:image>
    </rdf:li>
   </rdf:Alt>
  </xap:Thumbnails>
 </rdf:Description>

 <rdf:Description rdf:about='uuid:07b2dd0d-ee02-11db-b83e-000a95c54204'
  xmlns:xapMM='http://ns.adobe.com/xap/1.0/mm/'>
  <xapMM:DocumentID>uuid:d036ee2e-ede3-11db-b83e-000a95c54204</xapMM:DocumentID>
 </rdf:Description>

 <rdf:Description rdf:about='uuid:07b2dd0d-ee02-11db-b83e-000a95c54204'
  xmlns:dc='http://purl.org/dc/elements/1.1/'>
  <dc:format>image/svg+xml</dc:format>
 </rdf:Description>

</rdf:RDF>
</x:xmpmeta>
                                                                                                                                                                                                                                                                                                                                                                                                                                                                                                                                                                                                                                                                                                                                                                                                                                                                                                                                                                                                                                                                                                                                                                                                                                                                                                                                                                                                                                                                                                                                                                                                                                                                                                                                                                                                                                                                                                                                                                                                                                                                                                                                <?xpacket end='w'?>
			</metadata>
		<g id="Layer_1" i:layer="yes" i:dimmedPercent="50" i:rgbTrio="#4F008000FFFF">
			<g i:knockout="Off">
				<g>
					<linearGradient id="XMLID_18_" gradientUnits="userSpaceOnUse" x1="163.6611" y1="94.748" x2="163.6611" y2="42.7475">
						<stop  offset="0" style="stop-color:#A6A6A6"/>
						<stop  offset="0.1492" style="stop-color:#C0C0C0"/>
						<stop  offset="0.3729" style="stop-color:#E2E2E2"/>
						<stop  offset="0.5579" style="stop-color:#F7F7F7"/>
						<stop  offset="0.6798" style="stop-color:#FFFFFF"/>
						<stop  offset="0.7371" style="stop-color:#F8F8F8"/>
						<stop  offset="0.8225" style="stop-color:#E3E3E3"/>
						<stop  offset="0.925" style="stop-color:#C2C2C2"/>
						<stop  offset="1" style="stop-color:#A6A6A6"/>
						<a:midPointStop  offset="0" style="stop-color:#A6A6A6"/>
						<a:midPointStop  offset="0.3833" style="stop-color:#A6A6A6"/>
						<a:midPointStop  offset="0.6798" style="stop-color:#FFFFFF"/>
						<a:midPointStop  offset="0.6207" style="stop-color:#FFFFFF"/>
						<a:midPointStop  offset="1" style="stop-color:#A6A6A6"/>
					</linearGradient>
					<path i:knockout="Off" fill="url(#XMLID_18_)" d="M247.361,42.748L247.361,42.748l-178.201,0v52h178.201v0
						c5.965,0,10.801-11.641,10.801-26S253.326,42.748,247.361,42.748z"/>
				</g>
				<g>
					<path i:knockout="Off" fill="none" stroke="#000000" stroke-width="0.8" d="M247.361,42.748L247.361,42.748l-178.201,0v52
						h178.201v0c5.965,0,10.801-11.641,10.801-26S253.326,42.748,247.361,42.748z"/>
				</g>
			</g>
			<ellipse i:knockout="Off" fill="#999999" stroke="#000000" stroke-width="0.8" cx="69.16" cy="68.748" rx="10.8" ry="26"/> 
			<g>
				<line i:knockout="Off" fill="none" stroke="#000000" stroke-width="0.4" x1="68.299" y1="101.943" x2="68.299" y2="111.261"/>
				<line i:knockout="Off" fill="none" stroke="#000000" stroke-width="0.4" x1="248.85" y1="101.943" x2="248.85" y2="111.262"/>
				<line i:knockout="Off" fill="none" stroke="#000000" stroke-width="0.4" x1="68.299" y1="106.659" x2="248.85" y2="106.659"/>
			</g>
			<g>
				<defs>
					<rect id="XMLID_2_" x="126.131" y="16.569" width="58.316" height="10.258"/> 
				</defs>
				<clipPath id="XMLID_19_">
					<use xlink:href="#XMLID_2_" />
				</clipPath>
				<path i:knockout="Off" clip-path="url(#XMLID_19_)" d="M129.461,23.539c0.104,0.391,0.437,0.638,0.844,0.638
					c0.332,0,0.551-0.219,0.703-0.523c0.162-0.342,0.285-0.922,0.285-0.942c0-0.095-0.086-0.095-0.114-0.095
					c-0.095,0-0.104,0.038-0.133,0.171c-0.133,0.532-0.313,1.178-0.711,1.178c-0.2,0-0.294-0.124-0.294-0.438
					c0-0.209,0.113-0.655,0.19-0.988c0.086-0.342,0.18-0.684,0.266-1.025c0.028-0.143,0.123-0.504,0.161-0.646
					c0.048-0.219,0.142-0.58,0.142-0.637c0-0.171-0.133-0.257-0.275-0.257c-0.047,0-0.293,0.009-0.37,0.333
					c-0.18,0.693-0.597,2.356-0.711,2.859c-0.01,0.039-0.389,0.799-1.081,0.799c-0.493,0-0.588-0.429-0.588-0.782
					c0-0.534,0.261-1.287,0.504-1.944c0.112-0.286,0.159-0.419,0.159-0.601c0-0.429-0.304-0.782-0.778-0.782
					c-0.901,0-1.252,1.39-1.252,1.476c0,0.096,0.094,0.096,0.112,0.096c0.094,0,0.104-0.02,0.15-0.172
					c0.235-0.833,0.592-1.188,0.949-1.188c0.084,0,0.235,0.011,0.235,0.315c0,0.229-0.102,0.505-0.156,0.648
					c-0.34,0.943-0.533,1.535-0.533,2.001c0,0.906,0.655,1.144,1.167,1.144C128.958,24.177,129.3,23.748,129.461,23.539"/>
				<path i:knockout="Off" clip-path="url(#XMLID_19_)" d="M134.711,26.361c0-0.028,0-0.047-0.163-0.209
					c-1.194-1.199-1.5-2.997-1.5-4.453c0-1.655,0.363-3.311,1.538-4.5c0.125-0.113,0.125-0.133,0.125-0.161
					c0-0.066-0.039-0.097-0.096-0.097c-0.096,0-0.956,0.649-1.521,1.857c-0.487,1.046-0.602,2.103-0.602,2.902
					c0,0.742,0.105,1.893,0.632,2.968c0.573,1.171,1.396,1.789,1.492,1.789C134.673,26.457,134.711,26.428,134.711,26.361"/>
				<path i:knockout="Off" clip-path="url(#XMLID_19_)" d="M138.451,21.193c0.058-0.248,0.276-1.125,0.942-1.125
					c0.047,0,0.275,0,0.475,0.132c-0.267,0.047-0.457,0.286-0.457,0.515c0,0.152,0.105,0.333,0.362,0.333
					c0.208,0,0.513-0.173,0.513-0.558c0-0.5-0.555-0.635-0.875-0.635c-0.553,0-0.887,0.513-1,0.735
					c-0.239-0.639-0.753-0.735-1.03-0.735c-0.991,0-1.535,1.236-1.535,1.476c0,0.096,0.096,0.096,0.114,0.096
					c0.077,0,0.104-0.02,0.124-0.105c0.323-1.014,0.952-1.254,1.274-1.254c0.181,0,0.514,0.086,0.514,0.639
					c0,0.295-0.162,0.933-0.514,2.267c-0.152,0.591-0.485,0.991-0.903,0.991c-0.057,0-0.276,0-0.476-0.132
					c0.233-0.047,0.438-0.248,0.438-0.515c0-0.257-0.209-0.333-0.352-0.333c-0.285,0-0.523,0.25-0.523,0.558
					c0,0.443,0.477,0.635,0.896,0.635c0.629,0,0.972-0.667,1-0.724c0.115,0.353,0.458,0.724,1.03,0.724
					c0.981,0,1.525-1.227,1.525-1.465c0-0.095-0.086-0.095-0.114-0.095c-0.086,0-0.104,0.038-0.123,0.104
					c-0.314,1.016-0.96,1.244-1.264,1.244c-0.371,0-0.523-0.305-0.523-0.628c0-0.21,0.058-0.419,0.162-0.838"/>
				<path i:knockout="Off" clip-path="url(#XMLID_19_)" d="M142.645,24.071c0-0.633-0.24-1.007-0.612-1.007
					c-0.315,0-0.506,0.238-0.506,0.504c0,0.256,0.19,0.503,0.504,0.503c0.114,0,0.239-0.038,0.334-0.124
					c0.028-0.019,0.038-0.028,0.047-0.028s0.021,0.01,0.021,0.152c0,0.697-0.334,1.263-0.649,1.574
					c-0.105,0.104-0.105,0.122-0.105,0.151c0,0.065,0.048,0.104,0.097,0.104C141.88,25.9,142.645,25.174,142.645,24.071"/>
				<path i:knockout="Off" clip-path="url(#XMLID_19_)" d="M147.291,24.071c-0.369,0-0.926-0.237-1.097-1.15
					c-0.104-0.571-0.104-1.445-0.104-2.006c0-0.608,0-1.236,0.076-1.75c0.18-1.131,0.889-1.217,1.125-1.217
					c0.312,0,0.937,0.172,1.117,1.113c0.094,0.533,0.094,1.254,0.094,1.854c0,0.713,0,1.359-0.104,1.968
					C148.257,23.785,147.718,24.07,147.291,24.071 M149.297,21.028c0-0.761-0.047-1.522-0.38-2.227
					c-0.437-0.913-1.216-1.065-1.616-1.065c-0.57,0-1.264,0.247-1.654,1.132c-0.304,0.657-0.352,1.399-0.352,2.16
					c0,0.714,0.038,1.57,0.428,2.293c0.409,0.771,1.103,0.961,1.568,0.961c0.514,0,1.236-0.2,1.655-1.104
					C149.25,22.522,149.297,21.78,149.297,21.028z"/>
				<path i:knockout="Off" clip-path="url(#XMLID_19_)" d="M152.452,21.7c0-0.743-0.105-1.894-0.63-2.968
					c-0.573-1.17-1.393-1.791-1.489-1.791c-0.057,0-0.094,0.04-0.094,0.097c0,0.029,0,0.048,0.18,0.219
					c0.934,0.942,1.477,2.455,1.477,4.443c0,1.626-0.352,3.301-1.534,4.5c-0.123,0.115-0.123,0.133-0.123,0.162
					c0,0.057,0.037,0.095,0.094,0.095c0.096,0,0.955-0.647,1.518-1.855C152.336,23.555,152.452,22.499,152.452,21.7"/>
				<path i:knockout="Off" clip-path="url(#XMLID_19_)" d="M162.557,22.799c0.133,0,0.314,0,0.314-0.186s-0.182-0.186-0.322-0.186
					h-5.666c-0.142,0-0.323,0-0.323,0.186s0.181,0.186,0.313,0.186 M162.549,20.97c0.141,0,0.322,0,0.322-0.186
					s-0.182-0.186-0.314-0.186h-5.683c-0.133,0-0.312,0-0.312,0.186s0.18,0.186,0.322,0.186H162.549z"/>
				<path i:knockout="Off" clip-path="url(#XMLID_19_)" d="M169.539,20.254h0.818c0.189,0,0.285,0,0.285-0.188
					c0-0.104-0.096-0.104-0.258-0.104h-0.789c0.105-0.549,0.096-0.53,0.2-1.079c0.038-0.199,0.171-0.871,0.228-0.985
					c0.086-0.18,0.248-0.322,0.447-0.322c0.037,0,0.285,0,0.467,0.159c-0.418,0.038-0.514,0.372-0.514,0.515
					c0,0.219,0.172,0.333,0.352,0.333c0.247,0,0.523-0.208,0.523-0.567c0-0.435-0.438-0.652-0.828-0.652
					c-0.323,0-0.922,0.171-1.207,1.11c-0.057,0.199-0.086,0.293-0.314,1.488h-0.654c-0.182,0-0.287,0-0.287,0.179
					c0,0.113,0.086,0.113,0.268,0.113h0.627l-0.713,3.771c-0.172,0.926-0.332,1.795-0.827,1.795c-0.038,0-0.276,0-0.457-0.185
					c0.438-0.028,0.523-0.372,0.523-0.514c0-0.22-0.172-0.334-0.352-0.334c-0.247,0-0.523,0.212-0.523,0.58
					c0,0.434,0.419,0.666,0.808,0.666c0.523,0,0.903-0.564,1.075-0.927c0.304-0.602,0.522-1.757,0.531-1.824"/>
				<path i:knockout="Off" clip-path="url(#XMLID_19_)" d="M174.869,26.361c0-0.028,0-0.047-0.162-0.209
					c-1.193-1.199-1.5-2.997-1.5-4.453c0-1.655,0.363-3.311,1.538-4.5c0.124-0.113,0.124-0.133,0.124-0.161
					c0-0.066-0.037-0.097-0.096-0.097c-0.095,0-0.955,0.649-1.521,1.857c-0.487,1.046-0.603,2.103-0.603,2.902
					c0,0.742,0.105,1.893,0.631,2.968c0.574,1.171,1.397,1.789,1.492,1.789C174.832,26.457,174.87,26.428,174.869,26.361"/>
				<path i:knockout="Off" clip-path="url(#XMLID_19_)" d="M178.609,21.193c0.057-0.248,0.275-1.125,0.941-1.125
					c0.047,0,0.275,0,0.475,0.132c-0.266,0.047-0.456,0.286-0.456,0.515c0,0.152,0.104,0.333,0.36,0.333
					c0.21,0,0.515-0.173,0.515-0.558c0-0.5-0.555-0.635-0.875-0.635c-0.554,0-0.887,0.513-1.001,0.735
					c-0.238-0.639-0.754-0.735-1.029-0.735c-0.992,0-1.533,1.236-1.533,1.476c0,0.096,0.094,0.096,0.113,0.096
					c0.075,0,0.104-0.02,0.123-0.105c0.323-1.014,0.951-1.254,1.273-1.254c0.182,0,0.514,0.086,0.514,0.639
					c0,0.295-0.162,0.933-0.514,2.267c-0.152,0.591-0.484,0.991-0.902,0.991c-0.057,0-0.275,0-0.475-0.132
					c0.23-0.047,0.436-0.248,0.436-0.515c0-0.257-0.209-0.333-0.352-0.333c-0.285,0-0.523,0.25-0.523,0.558
					c0,0.443,0.477,0.635,0.896,0.635c0.629,0,0.971-0.667,1-0.724c0.114,0.353,0.457,0.724,1.028,0.724
					c0.981,0,1.526-1.227,1.526-1.465c0-0.095-0.086-0.095-0.115-0.095c-0.084,0-0.104,0.038-0.123,0.104
					c-0.312,1.016-0.96,1.244-1.265,1.244c-0.37,0-0.522-0.305-0.522-0.628c0-0.21,0.057-0.419,0.162-0.838"/>
				<path i:knockout="Off" clip-path="url(#XMLID_19_)" d="M183.624,21.7c0-0.743-0.104-1.894-0.63-2.968
					c-0.572-1.17-1.394-1.791-1.488-1.791c-0.059,0-0.096,0.04-0.096,0.097c0,0.029,0,0.048,0.182,0.219
					c0.932,0.942,1.477,2.455,1.477,4.443c0,1.626-0.354,3.301-1.535,4.5c-0.123,0.115-0.123,0.133-0.123,0.162
					c0,0.057,0.037,0.095,0.096,0.095c0.095,0,0.954-0.647,1.517-1.855C183.51,23.555,183.624,22.499,183.624,21.7"/>
			</g>
			<g>
				<defs>
					<rect id="XMLID_4_" y="49.243" width="52.17" height="11.279"/> 
				</defs>
				<clipPath id="XMLID_20_">
					<use xlink:href="#XMLID_4_" />
				</clipPath>
				<path i:knockout="Off" clip-path="url(#XMLID_20_)" d="M9.162,56.906c0.115,0.429,0.48,0.702,0.928,0.702
					c0.365,0,0.605-0.241,0.772-0.576c0.177-0.375,0.314-1.014,0.314-1.035c0-0.104-0.095-0.104-0.126-0.104
					c-0.105,0-0.115,0.042-0.146,0.188c-0.146,0.584-0.344,1.294-0.782,1.294c-0.219,0-0.323-0.136-0.323-0.48
					c0-0.229,0.125-0.72,0.208-1.086c0.094-0.375,0.198-0.752,0.292-1.128c0.031-0.157,0.135-0.554,0.177-0.711
					c0.052-0.241,0.156-0.637,0.156-0.7c0-0.188-0.145-0.282-0.302-0.282c-0.052,0-0.323,0.011-0.407,0.366
					c-0.198,0.763-0.657,2.591-0.782,3.144c-0.01,0.042-0.428,0.878-1.189,0.878c-0.542,0-0.646-0.472-0.646-0.859
					c0-0.587,0.288-1.415,0.555-2.138c0.123-0.314,0.174-0.461,0.174-0.66c0-0.472-0.334-0.86-0.855-0.86
					c-0.991,0-1.377,1.528-1.377,1.623c0,0.105,0.104,0.105,0.124,0.105c0.103,0,0.113-0.021,0.166-0.189
					c0.258-0.916,0.65-1.306,1.043-1.306c0.093,0,0.258,0.011,0.258,0.347c0,0.251-0.111,0.555-0.171,0.712
					c-0.374,1.038-0.586,1.688-0.586,2.201c0,0.995,0.72,1.257,1.283,1.257C8.609,57.607,8.985,57.136,9.162,56.906"/>
				<path i:knockout="Off" clip-path="url(#XMLID_20_)" d="M14.71,60.01c0-0.031,0-0.052-0.179-0.23
					c-1.312-1.318-1.649-3.295-1.649-4.895c0-1.82,0.399-3.641,1.691-4.948c0.137-0.125,0.137-0.146,0.137-0.177
					c0-0.073-0.042-0.107-0.105-0.107c-0.105,0-1.052,0.713-1.672,2.042c-0.536,1.151-0.663,2.312-0.663,3.19
					c0,0.816,0.116,2.082,0.694,3.264c0.631,1.288,1.536,1.967,1.641,1.967C14.668,60.115,14.71,60.083,14.71,60.01"/>
				<path i:knockout="Off" clip-path="url(#XMLID_20_)" d="M17.904,57.491c-0.406,0-1.019-0.261-1.206-1.264
					c-0.115-0.627-0.115-1.589-0.115-2.206c0-0.669,0-1.359,0.084-1.923c0.197-1.244,0.977-1.338,1.237-1.338
					c0.343,0,1.029,0.188,1.228,1.224c0.104,0.585,0.104,1.379,0.104,2.038c0,0.784,0,1.495-0.115,2.164
					C18.966,57.178,18.373,57.49,17.904,57.491 M20.111,54.146c0-0.837-0.053-1.674-0.419-2.449
					c-0.481-1.004-1.338-1.172-1.777-1.172c-0.627,0-1.39,0.272-1.819,1.246c-0.334,0.722-0.387,1.538-0.387,2.375
					c0,0.785,0.042,1.727,0.471,2.521c0.449,0.848,1.212,1.057,1.725,1.057c0.564,0,1.359-0.22,1.819-1.214
					C20.058,55.789,20.111,54.973,20.111,54.146z"/>
				<path i:knockout="Off" clip-path="url(#XMLID_20_)" d="M22.676,57.491c0-0.696-0.263-1.108-0.672-1.108
					c-0.347,0-0.557,0.262-0.557,0.555c0,0.282,0.21,0.553,0.556,0.553c0.125,0,0.262-0.042,0.367-0.135
					c0.032-0.021,0.042-0.031,0.053-0.031c0.01,0,0.021,0.011,0.021,0.167c0,0.767-0.367,1.389-0.713,1.731
					c-0.115,0.113-0.115,0.135-0.115,0.166c0,0.072,0.052,0.114,0.105,0.114C21.834,59.502,22.676,58.704,22.676,57.491"/>
				<path i:knockout="Off" clip-path="url(#XMLID_20_)" d="M27.35,53.294h0.972c0.206,0,0.31,0,0.31-0.207
					c0-0.114-0.104-0.114-0.292-0.114h-0.92c0.376-1.485,0.429-1.694,0.429-1.757c0-0.178-0.125-0.283-0.303-0.283
					c-0.032,0-0.325,0.01-0.418,0.377l-0.408,1.662h-0.982c-0.209,0-0.314,0-0.314,0.197c0,0.124,0.083,0.124,0.293,0.124h0.919
					c-0.741,2.98-0.782,3.159-0.782,3.348c0,0.567,0.395,0.966,0.957,0.966c1.062,0,1.655-1.527,1.655-1.611
					c0-0.104-0.083-0.104-0.125-0.104c-0.093,0-0.104,0.031-0.155,0.146c-0.444,1.085-0.992,1.336-1.343,1.336
					c-0.216,0-0.32-0.136-0.32-0.482c0-0.251,0.021-0.325,0.062-0.503"/>
				<path i:knockout="Off" clip-path="url(#XMLID_20_)" d="M32.001,54.884c0-0.816-0.116-2.082-0.693-3.264
					c-0.629-1.286-1.532-1.969-1.637-1.969c-0.062,0-0.105,0.044-0.105,0.106c0,0.032,0,0.053,0.199,0.241
					c1.026,1.036,1.624,2.699,1.624,4.885c0,1.789-0.388,3.63-1.687,4.948c-0.136,0.125-0.136,0.146-0.136,0.178
					c0,0.062,0.042,0.104,0.105,0.104c0.105,0,1.049-0.711,1.668-2.04C31.875,56.924,32.001,55.763,32.001,54.884"/>
				<path i:knockout="Off" clip-path="url(#XMLID_20_)" d="M43.113,56.092c0.146,0,0.345,0,0.345-0.204
					c0-0.204-0.199-0.204-0.356-0.204h-6.229c-0.157,0-0.354,0-0.354,0.204c0,0.204,0.198,0.204,0.344,0.204 M43.102,54.082
					c0.157,0,0.356,0,0.356-0.204c0-0.204-0.199-0.204-0.345-0.204h-6.25c-0.146,0-0.344,0-0.344,0.204
					c0,0.204,0.198,0.204,0.355,0.204H43.102z"/>
				<path i:knockout="Off" clip-path="url(#XMLID_20_)" d="M49.557,57.491c-0.406,0-1.02-0.261-1.207-1.264
					c-0.114-0.627-0.114-1.589-0.114-2.206c0-0.669,0-1.359,0.083-1.923c0.198-1.244,0.978-1.338,1.238-1.338
					c0.343,0,1.029,0.188,1.227,1.224c0.104,0.585,0.104,1.379,0.104,2.038c0,0.784,0,1.495-0.114,2.164
					C50.617,57.178,50.024,57.49,49.557,57.491 M51.762,54.146c0-0.837-0.053-1.674-0.418-2.449
					c-0.481-1.004-1.338-1.172-1.777-1.172c-0.627,0-1.391,0.272-1.819,1.246c-0.335,0.722-0.387,1.538-0.387,2.375
					c0,0.785,0.042,1.727,0.47,2.521c0.45,0.848,1.214,1.057,1.725,1.057c0.564,0,1.359-0.22,1.819-1.214
					C51.709,55.789,51.762,54.973,51.762,54.146z"/>
			</g>
			<g>
				<defs>
					<rect id="XMLID_6_" x="260.452" y="49.243" width="50.359" height="11.266"/> 
				</defs>
				<clipPath id="XMLID_21_">
					<use xlink:href="#XMLID_6_" />
				</clipPath>
				<path i:knockout="Off" clip-path="url(#XMLID_21_)" d="M264.109,56.896c0.115,0.429,0.479,0.701,0.928,0.701
					c0.364,0,0.604-0.24,0.771-0.574c0.177-0.376,0.313-1.014,0.313-1.035c0-0.104-0.095-0.104-0.126-0.104
					c-0.104,0-0.114,0.042-0.146,0.188c-0.146,0.583-0.344,1.293-0.781,1.293c-0.219,0-0.322-0.136-0.322-0.48
					c0-0.23,0.124-0.72,0.207-1.085c0.094-0.375,0.199-0.751,0.293-1.126c0.031-0.157,0.135-0.553,0.178-0.71
					c0.051-0.24,0.154-0.637,0.154-0.699c0-0.188-0.145-0.282-0.301-0.282c-0.053,0-0.322,0.011-0.406,0.366
					c-0.197,0.762-0.656,2.588-0.781,3.141c-0.01,0.042-0.427,0.877-1.188,0.877c-0.541,0-0.646-0.471-0.646-0.859
					c0-0.586,0.288-1.413,0.554-2.135c0.123-0.314,0.174-0.46,0.174-0.658c0-0.471-0.333-0.859-0.854-0.859
					c-0.99,0-1.375,1.525-1.375,1.621c0,0.104,0.103,0.104,0.123,0.104c0.104,0,0.113-0.021,0.166-0.189
					c0.258-0.915,0.649-1.304,1.041-1.304c0.094,0,0.258,0.012,0.258,0.346c0,0.251-0.11,0.555-0.17,0.712
					c-0.375,1.036-0.586,1.685-0.586,2.198c0,0.994,0.719,1.256,1.281,1.256C263.558,57.598,263.933,57.127,264.109,56.896"/>
				<path i:knockout="Off" clip-path="url(#XMLID_21_)" d="M269.875,59.997c0-0.031,0-0.052-0.18-0.229
					c-1.311-1.316-1.646-3.292-1.646-4.89c0-1.818,0.399-3.636,1.689-4.942c0.137-0.125,0.137-0.146,0.137-0.178
					c0-0.072-0.043-0.106-0.105-0.106c-0.105,0-1.051,0.712-1.67,2.04c-0.535,1.149-0.662,2.309-0.662,3.186
					c0,0.815,0.116,2.079,0.693,3.26c0.631,1.285,1.533,1.964,1.639,1.964C269.834,60.102,269.875,60.07,269.875,59.997"/>
				<path i:knockout="Off" clip-path="url(#XMLID_21_)" d="M273.188,50.349c0-0.01,0-0.116-0.135-0.116
					c-0.24,0-1.002,0.083-1.273,0.104c-0.084,0.011-0.199,0.021-0.199,0.218c0,0.115,0.105,0.115,0.262,0.115
					c0.5,0,0.512,0.094,0.512,0.178l-0.031,0.209l-1.316,5.224c-0.031,0.115-0.051,0.188-0.051,0.355
					c0,0.595,0.458,0.961,0.949,0.961c0.345,0,0.605-0.208,0.783-0.585c0.188-0.396,0.312-1.003,0.312-1.023
					c0-0.104-0.094-0.104-0.125-0.104c-0.104,0-0.113,0.042-0.145,0.188c-0.177,0.677-0.373,1.293-0.789,1.293
					c-0.311,0-0.311-0.334-0.311-0.48c0-0.251,0.01-0.303,0.062-0.501"/>
				<path i:knockout="Off" clip-path="url(#XMLID_21_)" d="M275.939,57.481c0-0.695-0.264-1.106-0.672-1.106
					c-0.347,0-0.557,0.261-0.557,0.553c0,0.282,0.209,0.553,0.555,0.553c0.125,0,0.262-0.042,0.366-0.136
					c0.031-0.021,0.042-0.031,0.052-0.031c0.012,0,0.022,0.01,0.022,0.167c0,0.766-0.367,1.387-0.712,1.728
					c-0.116,0.114-0.116,0.134-0.116,0.166c0,0.073,0.052,0.114,0.105,0.114C275.098,59.49,275.939,58.693,275.939,57.481"/>
				<path i:knockout="Off" clip-path="url(#XMLID_21_)" d="M280.607,53.29h0.97c0.206,0,0.31,0,0.31-0.207
					c0-0.114-0.104-0.114-0.291-0.114h-0.92c0.377-1.482,0.428-1.691,0.428-1.754c0-0.177-0.125-0.282-0.303-0.282
					c-0.031,0-0.322,0.01-0.418,0.376l-0.406,1.66h-0.981c-0.208,0-0.313,0-0.313,0.197c0,0.123,0.084,0.123,0.293,0.123h0.918
					c-0.74,2.978-0.781,3.156-0.781,3.344c0,0.566,0.395,0.964,0.957,0.964c1.059,0,1.652-1.525,1.652-1.609
					c0-0.104-0.084-0.104-0.124-0.104c-0.093,0-0.104,0.031-0.155,0.146c-0.443,1.084-0.99,1.334-1.341,1.334
					c-0.216,0-0.319-0.136-0.319-0.482c0-0.251,0.021-0.324,0.062-0.502"/>
				<path i:knockout="Off" clip-path="url(#XMLID_21_)" d="M285.253,54.877c0-0.815-0.116-2.08-0.692-3.26
					c-0.629-1.284-1.53-1.966-1.635-1.966c-0.062,0-0.105,0.044-0.105,0.107c0,0.031,0,0.053,0.199,0.24
					c1.025,1.034,1.621,2.695,1.621,4.879c0,1.786-0.387,3.625-1.684,4.941c-0.137,0.126-0.137,0.147-0.137,0.178
					c0,0.062,0.043,0.104,0.105,0.104c0.104,0,1.049-0.71,1.666-2.037C285.127,56.915,285.253,55.755,285.253,54.877"/>
				<path i:knockout="Off" clip-path="url(#XMLID_21_)" d="M296.351,56.084c0.146,0,0.345,0,0.345-0.204
					c0-0.204-0.199-0.204-0.355-0.204h-6.221c-0.156,0-0.354,0-0.354,0.204c0,0.204,0.197,0.204,0.343,0.204 M296.34,54.076
					c0.156,0,0.355,0,0.355-0.204s-0.199-0.204-0.345-0.204h-6.241c-0.146,0-0.344,0-0.344,0.204s0.197,0.204,0.354,0.204H296.34z"
					/>
			</g>
			<g i:knockout="Off">
				<g i:knockout="On"  a:adobe-knockout="true">
					
						<line i:knockout="Off" fill="none" stroke="#ABABAB" stroke-width="0.8" stroke-dasharray="1.6"  a:adobe-knockout="false" x1="68.299" y1="4.828" x2="68.299" y2="134.736"/>
					<path i:knockout="Off" fill="#ABABAB"  a:adobe-knockout="false" d="M68.299,0c0.843,2.272,2.281,5.091,3.804,6.837
						l-3.804-1.375l-3.804,1.375C66.018,5.091,67.456,2.272,68.299,0z"/>
				</g>
			</g>
			<g i:knockout="Off">
				<g i:knockout="On"  a:adobe-knockout="true">
					
						<line i:knockout="Off" fill="none" stroke="#B3B3B3" stroke-width="0.8" stroke-dasharray="1.6"  a:adobe-knockout="false" x1="42.462" y1="68.748" x2="327.27" y2="68.748"/>
					<path i:knockout="Off" fill="#B3B3B3"  a:adobe-knockout="false" d="M332.098,68.748c-2.271,0.843-5.091,2.281-6.838,3.804
						l1.376-3.804l-1.376-3.804C327.007,66.466,329.826,67.905,332.098,68.748z"/>
				</g>
			</g>
			<path i:knockout="Off" fill="none" stroke="#000000" stroke-width="0.8" d="M79.96,68.748c0,0,10.287-20.717,30.835,2.794
				c30.692,35.118,48.625-42.021,66.65-16.183c15.679,22.474,80.717,13.389,80.717,13.389"/>
			<g>
				<defs>
					<polyline id="XMLID_8_" points="179.577,57.817 196.531,57.817 196.531,48.417 179.577,48.417 "/>
				</defs>
				<clipPath id="XMLID_22_">
					<use xlink:href="#XMLID_8_" />
				</clipPath>
				<path i:knockout="Off" clip-path="url(#XMLID_22_)" d="M182.774,51.793h0.748c0.174,0,0.262,0,0.262-0.172
					c0-0.095-0.088-0.095-0.234-0.095h-0.723c0.095-0.503,0.086-0.486,0.182-0.989c0.035-0.182,0.156-0.798,0.21-0.903
					c0.078-0.165,0.226-0.295,0.409-0.295c0.035,0,0.262,0,0.427,0.146c-0.383,0.035-0.47,0.34-0.47,0.472
					c0,0.201,0.157,0.306,0.321,0.306c0.227,0,0.479-0.19,0.479-0.52c0-0.398-0.4-0.598-0.758-0.598
					c-0.297,0-0.846,0.157-1.107,1.017c-0.052,0.183-0.078,0.27-0.287,1.364h-0.601c-0.165,0-0.263,0-0.263,0.164
					c0,0.103,0.08,0.103,0.246,0.103h0.574l-0.654,3.457c-0.156,0.849-0.305,1.645-0.758,1.645c-0.035,0-0.252,0-0.418-0.169
					c0.401-0.026,0.479-0.34,0.479-0.471c0-0.202-0.156-0.306-0.322-0.306c-0.227,0-0.479,0.195-0.479,0.531
					c0,0.398,0.384,0.61,0.74,0.61c0.479,0,0.827-0.517,0.984-0.849c0.279-0.551,0.479-1.61,0.487-1.672"/>
				<path i:knockout="Off" clip-path="url(#XMLID_22_)" d="M187.657,57.39c0-0.025,0-0.043-0.148-0.191
					c-1.094-1.099-1.373-2.747-1.373-4.08c0-1.517,0.332-3.034,1.408-4.124c0.113-0.105,0.113-0.123,0.113-0.148
					c0-0.061-0.033-0.089-0.086-0.089c-0.088,0-0.877,0.594-1.395,1.702c-0.447,0.959-0.552,1.927-0.552,2.659
					c0,0.68,0.097,1.734,0.578,2.72c0.526,1.073,1.28,1.639,1.368,1.639C187.624,57.478,187.657,57.452,187.657,57.39"/>
				<path i:knockout="Off" clip-path="url(#XMLID_22_)" d="M191.085,52.654c0.053-0.227,0.252-1.03,0.863-1.03
					c0.043,0,0.252,0,0.435,0.122c-0.245,0.043-0.418,0.262-0.418,0.471c0,0.14,0.097,0.306,0.331,0.306
					c0.191,0,0.471-0.158,0.471-0.511c0-0.458-0.509-0.582-0.802-0.582c-0.507,0-0.812,0.47-0.918,0.674
					c-0.218-0.584-0.688-0.674-0.942-0.674c-0.908,0-1.406,1.133-1.406,1.353c0,0.087,0.088,0.087,0.105,0.087
					c0.068,0,0.095-0.018,0.111-0.096c0.297-0.93,0.873-1.15,1.17-1.15c0.164,0,0.469,0.079,0.469,0.585
					c0,0.271-0.147,0.855-0.469,2.078c-0.141,0.542-0.445,0.908-0.83,0.908c-0.052,0-0.252,0-0.435-0.121
					c0.214-0.044,0.399-0.228,0.399-0.472c0-0.236-0.191-0.306-0.322-0.306c-0.262,0-0.479,0.229-0.479,0.511
					c0,0.406,0.436,0.582,0.82,0.582c0.576,0,0.891-0.611,0.917-0.663c0.104,0.323,0.419,0.663,0.942,0.663
					c0.9,0,1.398-1.125,1.398-1.343c0-0.087-0.078-0.087-0.105-0.087c-0.078,0-0.096,0.035-0.113,0.096
					c-0.287,0.931-0.88,1.14-1.158,1.14c-0.339,0-0.479-0.28-0.479-0.577c0-0.192,0.054-0.384,0.149-0.768"/>
				<path i:knockout="Off" clip-path="url(#XMLID_22_)" d="M195.681,53.119c0-0.681-0.096-1.736-0.578-2.721
					c-0.524-1.072-1.275-1.641-1.363-1.641c-0.053,0-0.088,0.037-0.088,0.09c0,0.025,0,0.043,0.166,0.199
					c0.855,0.864,1.354,2.25,1.354,4.072c0,1.49-0.324,3.024-1.405,4.124c-0.114,0.104-0.114,0.123-0.114,0.148
					c0,0.053,0.035,0.087,0.088,0.087c0.088,0,0.874-0.593,1.391-1.7C195.575,54.818,195.681,53.851,195.681,53.119"/>
			</g>
			<g>
				<defs>
					<rect id="XMLID_10_" x="246.604" y="115.592" width="3.52" height="8.894"/> 
				</defs>
				<clipPath id="XMLID_23_">
					<use xlink:href="#XMLID_10_" />
				</clipPath>
				<path i:knockout="Off" clip-path="url(#XMLID_23_)" d="M249.562,116.199c0-0.012,0-0.127-0.148-0.127
					c-0.264,0-1.102,0.092-1.399,0.114c-0.093,0.012-0.218,0.023-0.218,0.24c0,0.126,0.115,0.126,0.287,0.126
					c0.549,0,0.561,0.104,0.561,0.196l-0.033,0.23l-1.447,5.741c-0.033,0.126-0.056,0.207-0.056,0.39
					c0,0.655,0.505,1.057,1.044,1.057c0.379,0,0.666-0.23,0.861-0.643c0.205-0.437,0.344-1.103,0.344-1.125
					c0-0.114-0.104-0.114-0.139-0.114c-0.113,0-0.125,0.045-0.158,0.206c-0.194,0.745-0.412,1.421-0.867,1.421
					c-0.343,0-0.343-0.367-0.343-0.528c0-0.276,0.011-0.333,0.069-0.55"/>
			</g>
			<g>
				<defs>
					<polyline id="XMLID_12_" points="65.424,123.584 70.995,123.584 70.995,115.492 65.424,115.492 "/>
				</defs>
				<use xlink:href="#XMLID_12_"  fill="#FFFFFF"/>
				<clipPath id="XMLID_24_">
					<use xlink:href="#XMLID_12_" />
				</clipPath>
				<path i:knockout="Off" clip-path="url(#XMLID_24_)" d="M68.203,123.148c-0.433,0-1.088-0.279-1.288-1.352
					c-0.123-0.669-0.123-1.696-0.123-2.355c0-0.714,0-1.451,0.089-2.053c0.211-1.328,1.044-1.43,1.322-1.43
					c0.366,0,1.099,0.202,1.311,1.307c0.111,0.625,0.111,1.473,0.111,2.176c0,0.837,0,1.597-0.123,2.311
					C69.336,122.813,68.703,123.148,68.203,123.148 M70.559,119.576c0-0.894-0.057-1.788-0.447-2.615
					c-0.513-1.072-1.429-1.25-1.897-1.25c-0.67,0-1.484,0.29-1.942,1.329c-0.357,0.771-0.413,1.643-0.413,2.537
					c0,0.838,0.044,1.844,0.502,2.692c0.48,0.905,1.295,1.128,1.842,1.128c0.603,0,1.451-0.235,1.942-1.295
					C70.502,121.33,70.559,120.459,70.559,119.576z"/>
			</g>
			<g>
				<defs>
					<rect id="XMLID_14_" x="315.202" y="73.451" width="10.069" height="8.842"/> 
				</defs>
				<clipPath id="XMLID_25_">
					<use xlink:href="#XMLID_14_" />
				</clipPath>
				<path i:knockout="Off" clip-path="url(#XMLID_25_)" fill="#B3B3B3" d="M321.086,76.272c0.105-0.459,0.512-2.083,1.745-2.083
					c0.087,0,0.511,0,0.88,0.245c-0.493,0.088-0.846,0.53-0.846,0.954c0,0.282,0.193,0.619,0.669,0.619
					c0.388,0,0.952-0.321,0.952-1.034c0-0.926-1.029-1.176-1.621-1.176c-1.025,0-1.644,0.95-1.855,1.362
					c-0.441-1.183-1.395-1.362-1.908-1.362c-1.836,0-2.842,2.291-2.842,2.735c0,0.177,0.176,0.177,0.211,0.177
					c0.141,0,0.193-0.036,0.229-0.195c0.6-1.88,1.762-2.324,2.361-2.324c0.334,0,0.951,0.159,0.951,1.183
					c0,0.547-0.301,1.729-0.951,4.201c-0.283,1.095-0.898,1.836-1.674,1.836c-0.105,0-0.512,0-0.881-0.245
					c0.431-0.089,0.81-0.46,0.81-0.955c0-0.477-0.388-0.618-0.652-0.618c-0.528,0-0.97,0.464-0.97,1.034
					c0,0.82,0.883,1.176,1.66,1.176c1.165,0,1.801-1.234,1.854-1.341c0.213,0.654,0.848,1.341,1.908,1.341
					c1.817,0,2.825-2.274,2.825-2.715c0-0.176-0.159-0.176-0.211-0.176c-0.159,0-0.194,0.07-0.229,0.193
					c-0.58,1.882-1.779,2.305-2.342,2.305c-0.688,0-0.969-0.565-0.969-1.166c0-0.388,0.105-0.776,0.299-1.553"/>
			</g>
			<g>
				<defs>
					<rect id="XMLID_16_" x="99.692" y="29.389" width="119.142" height="10.656"/> 
				</defs>
				<clipPath id="XMLID_26_">
					<use xlink:href="#XMLID_16_" />
				</clipPath>
				<path i:knockout="Off" clip-path="url(#XMLID_26_)" d="M102.132,39.538c0-0.031,0-0.052-0.177-0.228
					c-1.297-1.302-1.629-3.256-1.629-4.837c0-1.799,0.394-3.598,1.671-4.89c0.135-0.124,0.135-0.145,0.135-0.176
					c0-0.072-0.042-0.105-0.104-0.105c-0.104,0-1.04,0.706-1.652,2.018c-0.53,1.137-0.655,2.285-0.655,3.153
					c0,0.805,0.115,2.057,0.686,3.224c0.624,1.272,1.517,1.944,1.621,1.944C102.091,39.642,102.132,39.61,102.132,39.538"/>
				<path i:knockout="Off" clip-path="url(#XMLID_26_)" d="M104.589,30.685c0-0.331-0.258-0.548-0.547-0.548
					c-0.32,0-0.547,0.279-0.547,0.548c0,0.278,0.227,0.547,0.547,0.547C104.331,31.231,104.589,31.015,104.589,30.685 M104.56,32.47
					l-1.461,0.113v0.319c0.676,0,0.77,0.063,0.77,0.571v2.792c0,0.466-0.114,0.466-0.811,0.466v0.318
					c0.331-0.01,0.888-0.031,1.136-0.031c0.362,0,0.723,0.021,1.074,0.031v-0.318c-0.668,0-0.708-0.051-0.708-0.456V32.47z"/>
				<path i:knockout="Off" clip-path="url(#XMLID_26_)" d="M106.72,33.484v2.781c0,0.467-0.112,0.467-0.793,0.467v0.316
					c0.362-0.01,0.888-0.031,1.167-0.031c0.269,0,0.806,0.021,1.157,0.031v-0.316c-0.697,0-0.811,0-0.811-0.466v-1.907
					c0-1.078,0.734-1.659,1.396-1.659c0.651,0,0.765,0.561,0.765,1.151v2.415c0,0.466-0.113,0.466-0.801,0.466v0.316
					c0.361-0.01,0.888-0.031,1.167-0.031c0.269,0,0.806,0.021,1.157,0.031v-0.316c-0.534,0-0.792,0-0.802-0.312v-1.98
					c0-0.891,0-1.213-0.322-1.586c-0.145-0.177-0.486-0.384-1.086-0.384c-0.755,0-1.241,0.45-1.53,1.099V32.47l-1.456,0.113v0.319
					C106.639,32.902,106.72,32.975,106.72,33.484"/>
				<path i:knockout="Off" clip-path="url(#XMLID_26_)" d="M113.2,30.685c0-0.331-0.258-0.548-0.548-0.548
					c-0.32,0-0.547,0.279-0.547,0.548c0,0.278,0.227,0.547,0.547,0.547C112.942,31.231,113.2,31.015,113.2,30.685 M113.171,32.47
					l-1.461,0.113v0.319c0.676,0,0.77,0.063,0.77,0.571v2.792c0,0.466-0.114,0.466-0.811,0.466v0.318
					c0.331-0.01,0.888-0.031,1.136-0.031c0.362,0,0.724,0.021,1.074,0.031v-0.318c-0.667,0-0.708-0.051-0.708-0.456V32.47z"/>
				<path i:knockout="Off" clip-path="url(#XMLID_26_)" d="M115.994,32.902h1.478v-0.317h-1.478v-1.9h-0.258
					c-0.011,0.846-0.32,1.949-1.331,1.991v0.227h0.869v2.862c0,1.275,0.963,1.401,1.336,1.401c0.735,0,1.026-0.736,1.026-1.397
					v-0.591h-0.259v0.57c0,0.766-0.31,1.158-0.691,1.158c-0.691,0-0.691-0.944-0.691-1.12"/>
				<path i:knockout="Off" clip-path="url(#XMLID_26_)" d="M120.083,30.685c0-0.331-0.258-0.548-0.547-0.548
					c-0.32,0-0.547,0.279-0.547,0.548c0,0.278,0.227,0.547,0.547,0.547C119.825,31.231,120.083,31.015,120.083,30.685
					 M120.054,32.47l-1.461,0.113v0.319c0.676,0,0.77,0.063,0.77,0.571v2.792c0,0.466-0.114,0.466-0.811,0.466v0.318
					c0.33-0.01,0.888-0.031,1.136-0.031c0.361,0,0.723,0.021,1.075,0.031v-0.318c-0.668,0-0.708-0.051-0.708-0.456V32.47z"/>
				<path i:knockout="Off" clip-path="url(#XMLID_26_)" d="M124.46,34.573v1.031c0,0.979-0.741,1.33-1.205,1.33
					c-0.504,0-0.926-0.361-0.926-0.876C122.33,35.492,122.762,34.635,124.46,34.573 M124.533,36.265
					c0.042,0.41,0.321,0.841,0.807,0.841c0.218,0,0.849-0.144,0.849-0.978v-0.577h-0.259v0.579c0,0.599-0.257,0.659-0.37,0.659
					c-0.339,0-0.38-0.466-0.38-0.516v-2.07c0-0.435,0-0.838-0.375-1.221c-0.406-0.403-0.925-0.569-1.424-0.569
					c-0.853,0-1.57,0.491-1.57,1.179c0,0.313,0.207,0.491,0.475,0.491c0.29,0,0.476-0.208,0.476-0.479
					c0-0.125-0.051-0.47-0.514-0.48c0.279-0.365,0.786-0.48,1.117-0.48c0.506,0,1.096,0.402,1.096,1.318v0.381
					c-0.527,0.032-1.251,0.063-1.903,0.375c-0.775,0.353-1.034,0.891-1.034,1.348c0,0.84,1.004,1.099,1.655,1.099
					c0.683,0,1.159-0.412,1.355-0.9L124.533,36.265z"/>
				<path i:knockout="Off" clip-path="url(#XMLID_26_)" d="M128.089,29.878l-1.502,0.113v0.319c0.729,0,0.812,0.073,0.812,0.58
					v5.376c0,0.466-0.115,0.466-0.812,0.466v0.316c0.342-0.01,0.889-0.031,1.147-0.031s0.764,0.021,1.146,0.031v-0.316
					c-0.679,0-0.791,0-0.791-0.466"/>
				<path i:knockout="Off" clip-path="url(#XMLID_26_)" d="M134.339,32.902h1.479v-0.317h-1.479v-1.9h-0.258
					c-0.01,0.846-0.32,1.949-1.331,1.991v0.227h0.869v2.862c0,1.275,0.963,1.401,1.336,1.401c0.736,0,1.026-0.736,1.026-1.397
					v-0.591h-0.259v0.57c0,0.766-0.31,1.158-0.692,1.158c-0.691,0-0.691-0.944-0.691-1.12"/>
				<path i:knockout="Off" clip-path="url(#XMLID_26_)" d="M137.738,34.428c0.062-1.528,0.929-1.785,1.28-1.785
					c1.063,0,1.167,1.385,1.167,1.785 M140.618,34.658c0.228,0,0.259,0,0.259-0.23c0-1.018-0.56-2.016-1.853-2.016
					c-1.2,0-2.151,1.067-2.151,2.361c0,1.387,1.085,2.392,2.275,2.392c1.262,0,1.728-1.148,1.728-1.345
					c0-0.104-0.083-0.124-0.135-0.124c-0.093,0-0.114,0.062-0.134,0.144c-0.362,1.064-1.291,1.064-1.394,1.064
					c-0.517,0-0.93-0.311-1.167-0.694c-0.309-0.496-0.309-1.179-0.309-1.552H140.618z"/>
				<path i:knockout="Off" clip-path="url(#XMLID_26_)" d="M142.288,33.484v2.781c0,0.467-0.111,0.467-0.793,0.467v0.316
					c0.362-0.01,0.889-0.031,1.167-0.031c0.268,0,0.806,0.021,1.157,0.031v-0.316c-0.697,0-0.812,0-0.812-0.466v-1.907
					c0-1.078,0.734-1.659,1.396-1.659c0.651,0,0.765,0.561,0.765,1.151v2.415c0,0.466-0.113,0.466-0.802,0.466v0.316
					c0.362-0.01,0.889-0.031,1.167-0.031c0.269,0,0.806,0.021,1.157,0.031v-0.316c-0.689,0-0.802,0-0.802-0.466v-1.907
					c0-1.078,0.733-1.659,1.394-1.659c0.651,0,0.765,0.561,0.765,1.151v2.415c0,0.466-0.114,0.466-0.809,0.466v0.316
					c0.361-0.01,0.888-0.031,1.167-0.031c0.268,0,0.805,0.021,1.157,0.031v-0.316c-0.53,0-0.784,0-0.794-0.312v-1.98
					c0-0.891,0-1.213-0.322-1.586c-0.145-0.177-0.486-0.384-1.086-0.384c-0.87,0-1.325,0.628-1.501,1.026
					c-0.145-0.91-0.911-1.026-1.376-1.026c-0.755,0-1.242,0.45-1.532,1.099V32.47l-1.456,0.113v0.319
					C142.207,32.902,142.289,32.975,142.288,33.484"/>
				<path i:knockout="Off" clip-path="url(#XMLID_26_)" d="M151.59,36.441c0.052,0.165,0.485,0.724,1.27,0.724
					c1.228,0,2.302-1.016,2.302-2.353c0-1.315-1.004-2.342-2.161-2.342c-0.807,0-1.241,0.464-1.447,0.695V32.47l-1.488,0.113v0.319
					c0.732,0,0.805,0.063,0.805,0.521v4.858c0,0.468-0.114,0.468-0.805,0.468v0.315c0.351-0.01,0.888-0.029,1.156-0.029
					c0.279,0,0.806,0.02,1.167,0.029v-0.315c-0.686,0-0.798,0-0.798-0.468v-1.748 M151.59,33.558
					c0.298-0.528,0.802-0.829,1.328-0.829c0.751,0,1.379,0.911,1.379,2.082c0,1.251-0.721,2.123-1.482,2.123
					c-0.412,0-0.803-0.207-1.081-0.632c-0.144-0.218-0.144-0.227-0.144-0.434V33.558z"/>
				<path i:knockout="Off" clip-path="url(#XMLID_26_)" d="M157.494,36.502c0-0.3-0.248-0.548-0.547-0.548
					c-0.3,0-0.547,0.249-0.547,0.548c0,0.299,0.248,0.546,0.547,0.546S157.494,36.801,157.494,36.502"/>
				<path i:knockout="Off" clip-path="url(#XMLID_26_)" d="M166.891,33.705v2.121c0,0.187,0,0.208-0.113,0.383
					c-0.309,0.497-0.773,0.725-1.217,0.725c-0.466,0-0.837-0.27-1.085-0.662c-0.269-0.425-0.3-1.014-0.3-1.439
					c0-0.383,0.021-1.004,0.32-1.47c0.217-0.32,0.609-0.662,1.166-0.662c0.362,0,0.795,0.155,1.115,0.622
					C166.891,33.498,166.891,33.519,166.891,33.705 M166.889,36.481v0.682l1.521-0.112v-0.32c-0.725,0-0.807-0.071-0.807-0.578
					v-6.275l-1.486,0.113v0.319c0.713,0,0.795,0.072,0.795,0.58v2.234c-0.301-0.38-0.744-0.654-1.301-0.654
					c-1.217,0-2.299,1.016-2.299,2.353c0,1.316,1.012,2.34,2.191,2.34C166.166,37.163,166.631,36.813,166.889,36.481L166.889,36.481
					z"/>
				<path i:knockout="Off" clip-path="url(#XMLID_26_)" d="M170.57,30.685c0-0.331-0.259-0.548-0.548-0.548
					c-0.321,0-0.548,0.279-0.548,0.548c0,0.278,0.227,0.547,0.548,0.547C170.312,31.231,170.57,31.015,170.57,30.685 M170.54,32.47
					l-1.46,0.113v0.319c0.676,0,0.77,0.063,0.77,0.571v2.792c0,0.466-0.114,0.466-0.812,0.466v0.318
					c0.331-0.01,0.889-0.031,1.137-0.031c0.362,0,0.724,0.021,1.073,0.031v-0.318c-0.666,0-0.708-0.051-0.708-0.456V32.47z"/>
				<path i:knockout="Off" clip-path="url(#XMLID_26_)" d="M173.729,35.041c0.229,0.042,1.074,0.207,1.074,0.952
					c0,0.527-0.361,0.941-1.167,0.941c-0.866,0-1.239-0.588-1.435-1.465c-0.031-0.134-0.041-0.176-0.145-0.176
					c-0.133,0-0.133,0.073-0.133,0.258v1.364c0,0.176,0,0.25,0.112,0.25c0.051,0,0.062-0.012,0.259-0.208
					c0.02-0.021,0.02-0.042,0.205-0.239c0.453,0.436,0.916,0.446,1.133,0.446c1.186,0,1.66-0.694,1.66-1.438
					c0-0.548-0.311-0.858-0.434-0.982c-0.342-0.331-0.744-0.414-1.178-0.496c-0.576-0.114-1.27-0.248-1.27-0.848
					c0-0.362,0.27-0.786,1.156-0.786c1.135,0,1.186,0.932,1.207,1.253c0.01,0.093,0.102,0.093,0.123,0.093
					c0.135,0,0.135-0.051,0.135-0.25v-1.049c0-0.176,0-0.249-0.113-0.249c-0.052,0-0.071,0-0.207,0.124
					c-0.029,0.041-0.133,0.134-0.174,0.166c-0.392-0.289-0.814-0.289-0.969-0.289c-1.256,0-1.646,0.694-1.646,1.273
					c0,0.362,0.163,0.651,0.443,0.879C172.697,34.834,172.986,34.896,173.729,35.041"/>
				<path i:knockout="Off" clip-path="url(#XMLID_26_)" d="M177.424,32.902h1.479v-0.317h-1.479v-1.9h-0.258
					c-0.012,0.846-0.32,1.949-1.332,1.991v0.227h0.869v2.862c0,1.275,0.963,1.401,1.336,1.401c0.736,0,1.026-0.736,1.026-1.397
					v-0.591h-0.259v0.57c0,0.766-0.311,1.158-0.691,1.158c-0.691,0-0.691-0.944-0.691-1.12"/>
				<path i:knockout="Off" clip-path="url(#XMLID_26_)" d="M181.456,36.246v-1.596c0-1.026,0.431-1.949,1.212-1.949
					c0.07,0,0.091,0,0.111,0c-0.03,0.011-0.229,0.138-0.229,0.413c0,0.297,0.218,0.455,0.446,0.455c0.187,0,0.446-0.126,0.446-0.46
					c0-0.335-0.321-0.638-0.767-0.638c-0.758,0-1.13,0.701-1.275,1.15v-1.15l-1.441,0.113v0.319c0.723,0,0.805,0.073,0.805,0.582
					v2.781c0,0.466-0.113,0.466-0.805,0.466v0.318c0.402-0.01,0.889-0.031,1.178-0.031c0.414,0,0.898,0,1.312,0.031v-0.318h-0.216
					C181.476,36.731,181.456,36.618,181.456,36.246"/>
				<path i:knockout="Off" clip-path="url(#XMLID_26_)" d="M185.604,30.685c0-0.331-0.259-0.548-0.547-0.548
					c-0.321,0-0.547,0.279-0.547,0.548c0,0.278,0.226,0.547,0.547,0.547C185.345,31.231,185.604,31.015,185.604,30.685
					 M185.574,32.47l-1.461,0.113v0.319c0.676,0,0.77,0.063,0.77,0.571v2.792c0,0.466-0.115,0.466-0.811,0.466v0.318
					c0.33-0.01,0.889-0.031,1.135-0.031c0.362,0,0.724,0.021,1.075,0.031v-0.318c-0.667,0-0.708-0.051-0.708-0.456V32.47z"/>
				<path i:knockout="Off" clip-path="url(#XMLID_26_)" d="M188.391,35.868v-2.132c0-0.196,0-0.207,0.113-0.373
					c0.402-0.58,0.97-0.662,1.218-0.662c0.464,0,0.835,0.269,1.083,0.662c0.269,0.424,0.301,1.014,0.301,1.439
					c0,0.383-0.021,1.004-0.322,1.47c-0.217,0.32-0.608,0.662-1.166,0.662c-0.463,0-0.836-0.249-1.082-0.632
					c-0.146-0.218-0.146-0.248-0.146-0.434 M188.368,33.155v-3.277l-1.496,0.113v0.319c0.723,0,0.804,0.073,0.804,0.58v6.159h0.259
					c0.01-0.01,0.093-0.156,0.372-0.64c0.155,0.237,0.59,0.754,1.355,0.754c1.23,0,2.306-1.014,2.306-2.351
					c0-1.315-1.011-2.342-2.187-2.342C188.977,32.47,188.532,32.966,188.368,33.155z"/>
				<path i:knockout="Off" clip-path="url(#XMLID_26_)" d="M196.348,36.233v0.932l1.491-0.114v-0.318
					c-0.721,0-0.802-0.073-0.802-0.582V32.47l-1.521,0.113v0.319c0.719,0,0.801,0.073,0.801,0.581v1.845
					c0,0.902-0.495,1.606-1.251,1.606c-0.866,0-0.909-0.486-0.909-1.026V32.47l-1.512,0.114v0.318c0.791,0,0.791,0.033,0.791,0.955
					v1.555c0,0.809,0,1.752,1.575,1.752C195.592,37.165,196.048,36.875,196.348,36.233"/>
				<path i:knockout="Off" clip-path="url(#XMLID_26_)" d="M199.859,32.902h1.478v-0.317h-1.478v-1.9h-0.259
					c-0.011,0.846-0.32,1.949-1.331,1.991v0.227h0.869v2.862c0,1.275,0.963,1.401,1.336,1.401c0.736,0,1.025-0.736,1.025-1.397
					v-0.591h-0.259v0.57c0,0.766-0.31,1.158-0.691,1.158c-0.69,0-0.69-0.944-0.69-1.12"/>
				<path i:knockout="Off" clip-path="url(#XMLID_26_)" d="M203.949,30.685c0-0.331-0.258-0.548-0.549-0.548
					c-0.319,0-0.545,0.279-0.545,0.548c0,0.278,0.226,0.547,0.545,0.547C203.691,31.231,203.949,31.015,203.949,30.685
					 M203.92,32.47l-1.461,0.113v0.319c0.676,0,0.769,0.063,0.769,0.571v2.792c0,0.466-0.113,0.466-0.81,0.466v0.318
					c0.33-0.01,0.888-0.031,1.136-0.031c0.362,0,0.723,0.021,1.074,0.031v-0.318c-0.668,0-0.708-0.051-0.708-0.456V32.47z"/>
				<path i:knockout="Off" clip-path="url(#XMLID_26_)" d="M207.539,36.905c-0.441,0-0.895-0.217-1.173-0.692
					c-0.257-0.456-0.257-1.086-0.257-1.458c0-0.403,0-0.961,0.247-1.417c0.276-0.476,0.761-0.693,1.173-0.693
					c0.452,0,0.896,0.228,1.162,0.673c0.27,0.445,0.27,1.044,0.27,1.438c0,0.373,0,0.93-0.227,1.386
					C208.508,36.604,208.054,36.905,207.539,36.905 M209.824,34.836c0-1.325-1.034-2.423-2.285-2.423
					c-1.291,0-2.295,1.129-2.295,2.423c0,1.334,1.076,2.329,2.285,2.329C208.779,37.165,209.824,36.15,209.824,34.836z"/>
				<path i:knockout="Off" clip-path="url(#XMLID_26_)" d="M211.235,33.484v2.781c0,0.467-0.112,0.467-0.794,0.467v0.316
					c0.362-0.01,0.889-0.031,1.168-0.031c0.27,0,0.806,0.021,1.157,0.031v-0.316c-0.697,0-0.812,0-0.812-0.466v-1.907
					c0-1.078,0.735-1.659,1.396-1.659c0.652,0,0.766,0.561,0.766,1.151v2.415c0,0.466-0.113,0.466-0.803,0.466v0.316
					c0.363-0.01,0.891-0.031,1.17-0.031c0.267,0,0.805,0.021,1.155,0.031v-0.316c-0.534,0-0.792,0-0.802-0.312v-1.98
					c0-0.891,0-1.213-0.322-1.586c-0.145-0.177-0.486-0.384-1.084-0.384c-0.756,0-1.242,0.45-1.531,1.099V32.47l-1.456,0.113v0.319
					C211.152,32.902,211.235,32.975,211.235,33.484"/>
				<path i:knockout="Off" clip-path="url(#XMLID_26_)" d="M218.838,34.473c0-0.807-0.114-2.058-0.684-3.225
					c-0.623-1.271-1.516-1.946-1.619-1.946c-0.062,0-0.104,0.043-0.104,0.105c0,0.031,0,0.052,0.197,0.237
					c1.014,1.024,1.604,2.667,1.604,4.828c0,1.767-0.383,3.586-1.666,4.889c-0.135,0.124-0.135,0.145-0.135,0.176
					c0,0.062,0.042,0.103,0.104,0.103c0.104,0,1.037-0.703,1.648-2.016C218.713,36.488,218.838,35.34,218.838,34.473"/>
			</g>
			<path i:knockout="Off" display="none" fill="none" stroke="#4F4F4F" stroke-width="0.5" stroke-dasharray="5 2" d="
				M247.001,94.684c-5.965,0-10.801-11.641-10.801-26s4.836-26,10.801-26"/>
			<path i:knockout="Off" d="M302.281,58.151c-0.406,0-1.02-0.261-1.207-1.264c-0.114-0.627-0.114-1.589-0.114-2.206
				c0-0.669,0-1.359,0.083-1.923c0.198-1.244,0.979-1.338,1.238-1.338c0.343,0,1.029,0.188,1.227,1.224
				c0.104,0.585,0.104,1.379,0.104,2.038c0,0.784,0,1.495-0.114,2.164C303.342,57.838,302.749,58.15,302.281,58.151 M304.486,54.806
				c0-0.837-0.053-1.674-0.418-2.449c-0.48-1.004-1.338-1.172-1.777-1.172c-0.627,0-1.391,0.272-1.818,1.246
				c-0.336,0.722-0.387,1.538-0.387,2.375c0,0.785,0.041,1.727,0.469,2.521c0.451,0.848,1.215,1.057,1.726,1.057
				c0.564,0,1.359-0.22,1.819-1.214C304.434,56.449,304.486,55.633,304.486,54.806z"/>
		</g>
	</svg>
